<?xml version="1.0" encoding="utf-8" standalone="no"?>
<!DOCTYPE svg PUBLIC "-//W3C//DTD SVG 1.1//EN"
  "http://www.w3.org/Graphics/SVG/1.1/DTD/svg11.dtd">
<svg xmlns:xlink="http://www.w3.org/1999/xlink" width="460.8pt" height="345.6pt" viewBox="0 0 460.8 345.6" xmlns="http://www.w3.org/2000/svg" version="1.1">
 <metadata>
  <rdf:RDF xmlns:dc="http://purl.org/dc/elements/1.1/" xmlns:cc="http://creativecommons.org/ns#" xmlns:rdf="http://www.w3.org/1999/02/22-rdf-syntax-ns#">
   <cc:Work>
    <dc:type rdf:resource="http://purl.org/dc/dcmitype/StillImage"/>
    <dc:date>2024-02-01T22:04:45.047207</dc:date>
    <dc:format>image/svg+xml</dc:format>
    <dc:creator>
     <cc:Agent>
      <dc:title>Matplotlib v3.7.1, https://matplotlib.org/</dc:title>
     </cc:Agent>
    </dc:creator>
   </cc:Work>
  </rdf:RDF>
 </metadata>
 <defs>
  <style type="text/css">*{stroke-linejoin: round; stroke-linecap: butt}</style>
 </defs>
 <g id="figure_1">
  <g id="patch_1">
   <path d="M 0 345.6 
L 460.8 345.6 
L 460.8 0 
L 0 0 
z
" style="fill: #ffffff"/>
  </g>
  <g id="patch_2">
   <path d="M 103.104 307.584 
L 369.216 307.584 
L 369.216 41.472 
L 103.104 41.472 
z
" style="fill: #ffffff"/>
  </g>
  <g id="pane3d_1">
   <g id="patch_3">
    <path d="M 104.674919 188.120389 
L 178.615136 130.830879 
L 177.871594 100.04432 
L 102.911556 155.821057 
" style="fill: #f2f2f2; opacity: 0.5; stroke: #f2f2f2; stroke-linejoin: miter"/>
   </g>
  </g>
  <g id="pane3d_2">
   <g id="patch_4">
    <path d="M 178.615136 130.830879 
L 374.468696 185.807309 
L 376.222386 153.567149 
L 177.871594 100.04432 
" style="fill: #e6e6e6; opacity: 0.5; stroke: #e6e6e6; stroke-linejoin: miter"/>
   </g>
  </g>
  <g id="pane3d_3">
   <g id="patch_5">
    <path d="M 104.674919 188.120389 
L 310.245157 251.6758 
L 374.468696 185.807309 
L 178.615136 130.830879 
" style="fill: #ececec; opacity: 0.5; stroke: #ececec; stroke-linejoin: miter"/>
   </g>
  </g>
  <g id="axis3d_1">
   <g id="line2d_1">
    <path d="M 104.674919 188.120389 
L 310.245157 251.6758 
" style="fill: none; stroke: #000000; stroke-width: 0.8; stroke-linecap: square"/>
   </g>
   <g id="xtick_1">
    <g id="line2d_2">
     <path d="M 114.629132 190.508289 
L 112.73464 191.993809 
" style="fill: none; stroke: #000000; stroke-width: 0.8; stroke-linecap: square"/>
    </g>
    <g id="text_1">
     <!-- 275 -->
     <g transform="translate(98.01176 206.424202) scale(0.1 -0.1)">
      <defs>
       <path id="DejaVuSans-32" d="M 1228 531 
L 3431 531 
L 3431 0 
L 469 0 
L 469 531 
Q 828 903 1448 1529 
Q 2069 2156 2228 2338 
Q 2531 2678 2651 2914 
Q 2772 3150 2772 3378 
Q 2772 3750 2511 3984 
Q 2250 4219 1831 4219 
Q 1534 4219 1204 4116 
Q 875 4013 500 3803 
L 500 4441 
Q 881 4594 1212 4672 
Q 1544 4750 1819 4750 
Q 2544 4750 2975 4387 
Q 3406 4025 3406 3419 
Q 3406 3131 3298 2873 
Q 3191 2616 2906 2266 
Q 2828 2175 2409 1742 
Q 1991 1309 1228 531 
z
" transform="scale(0.015625)"/>
       <path id="DejaVuSans-37" d="M 525 4666 
L 3525 4666 
L 3525 4397 
L 1831 0 
L 1172 0 
L 2766 4134 
L 525 4134 
L 525 4666 
z
" transform="scale(0.015625)"/>
       <path id="DejaVuSans-35" d="M 691 4666 
L 3169 4666 
L 3169 4134 
L 1269 4134 
L 1269 2991 
Q 1406 3038 1543 3061 
Q 1681 3084 1819 3084 
Q 2600 3084 3056 2656 
Q 3513 2228 3513 1497 
Q 3513 744 3044 326 
Q 2575 -91 1722 -91 
Q 1428 -91 1123 -41 
Q 819 9 494 109 
L 494 744 
Q 775 591 1075 516 
Q 1375 441 1709 441 
Q 2250 441 2565 725 
Q 2881 1009 2881 1497 
Q 2881 1984 2565 2268 
Q 2250 2553 1709 2553 
Q 1456 2553 1204 2497 
Q 953 2441 691 2322 
L 691 4666 
z
" transform="scale(0.015625)"/>
      </defs>
      <use xlink:href="#DejaVuSans-32"/>
      <use xlink:href="#DejaVuSans-37" x="63.623047"/>
      <use xlink:href="#DejaVuSans-35" x="127.246094"/>
     </g>
    </g>
   </g>
   <g id="xtick_2">
    <g id="line2d_3">
     <path d="M 143.897762 199.549832 
L 142.034777 201.067149 
" style="fill: none; stroke: #000000; stroke-width: 0.8; stroke-linecap: square"/>
    </g>
    <g id="text_2">
     <!-- 280 -->
     <g transform="translate(127.369535 215.605621) scale(0.1 -0.1)">
      <defs>
       <path id="DejaVuSans-38" d="M 2034 2216 
Q 1584 2216 1326 1975 
Q 1069 1734 1069 1313 
Q 1069 891 1326 650 
Q 1584 409 2034 409 
Q 2484 409 2743 651 
Q 3003 894 3003 1313 
Q 3003 1734 2745 1975 
Q 2488 2216 2034 2216 
z
M 1403 2484 
Q 997 2584 770 2862 
Q 544 3141 544 3541 
Q 544 4100 942 4425 
Q 1341 4750 2034 4750 
Q 2731 4750 3128 4425 
Q 3525 4100 3525 3541 
Q 3525 3141 3298 2862 
Q 3072 2584 2669 2484 
Q 3125 2378 3379 2068 
Q 3634 1759 3634 1313 
Q 3634 634 3220 271 
Q 2806 -91 2034 -91 
Q 1263 -91 848 271 
Q 434 634 434 1313 
Q 434 1759 690 2068 
Q 947 2378 1403 2484 
z
M 1172 3481 
Q 1172 3119 1398 2916 
Q 1625 2713 2034 2713 
Q 2441 2713 2670 2916 
Q 2900 3119 2900 3481 
Q 2900 3844 2670 4047 
Q 2441 4250 2034 4250 
Q 1625 4250 1398 4047 
Q 1172 3844 1172 3481 
z
" transform="scale(0.015625)"/>
       <path id="DejaVuSans-30" d="M 2034 4250 
Q 1547 4250 1301 3770 
Q 1056 3291 1056 2328 
Q 1056 1369 1301 889 
Q 1547 409 2034 409 
Q 2525 409 2770 889 
Q 3016 1369 3016 2328 
Q 3016 3291 2770 3770 
Q 2525 4250 2034 4250 
z
M 2034 4750 
Q 2819 4750 3233 4129 
Q 3647 3509 3647 2328 
Q 3647 1150 3233 529 
Q 2819 -91 2034 -91 
Q 1250 -91 836 529 
Q 422 1150 422 2328 
Q 422 3509 836 4129 
Q 1250 4750 2034 4750 
z
" transform="scale(0.015625)"/>
      </defs>
      <use xlink:href="#DejaVuSans-32"/>
      <use xlink:href="#DejaVuSans-38" x="63.623047"/>
      <use xlink:href="#DejaVuSans-30" x="127.246094"/>
     </g>
    </g>
   </g>
   <g id="xtick_3">
    <g id="line2d_4">
     <path d="M 173.795707 208.785779 
L 171.966031 210.335925 
" style="fill: none; stroke: #000000; stroke-width: 0.8; stroke-linecap: square"/>
    </g>
    <g id="text_3">
     <!-- 285 -->
     <g transform="translate(157.362135 224.985577) scale(0.1 -0.1)">
      <use xlink:href="#DejaVuSans-32"/>
      <use xlink:href="#DejaVuSans-38" x="63.623047"/>
      <use xlink:href="#DejaVuSans-35" x="127.246094"/>
     </g>
    </g>
   </g>
   <g id="xtick_4">
    <g id="line2d_5">
     <path d="M 204.343485 218.22247 
L 202.549016 219.806523 
" style="fill: none; stroke: #000000; stroke-width: 0.8; stroke-linecap: square"/>
    </g>
    <g id="text_4">
     <!-- 290 -->
     <g transform="translate(188.010376 234.570579) scale(0.1 -0.1)">
      <defs>
       <path id="DejaVuSans-39" d="M 703 97 
L 703 672 
Q 941 559 1184 500 
Q 1428 441 1663 441 
Q 2288 441 2617 861 
Q 2947 1281 2994 2138 
Q 2813 1869 2534 1725 
Q 2256 1581 1919 1581 
Q 1219 1581 811 2004 
Q 403 2428 403 3163 
Q 403 3881 828 4315 
Q 1253 4750 1959 4750 
Q 2769 4750 3195 4129 
Q 3622 3509 3622 2328 
Q 3622 1225 3098 567 
Q 2575 -91 1691 -91 
Q 1453 -91 1209 -44 
Q 966 3 703 97 
z
M 1959 2075 
Q 2384 2075 2632 2365 
Q 2881 2656 2881 3163 
Q 2881 3666 2632 3958 
Q 2384 4250 1959 4250 
Q 1534 4250 1286 3958 
Q 1038 3666 1038 3163 
Q 1038 2656 1286 2365 
Q 1534 2075 1959 2075 
z
" transform="scale(0.015625)"/>
      </defs>
      <use xlink:href="#DejaVuSans-32"/>
      <use xlink:href="#DejaVuSans-39" x="63.623047"/>
      <use xlink:href="#DejaVuSans-30" x="127.246094"/>
     </g>
    </g>
   </g>
   <g id="xtick_5">
    <g id="line2d_6">
     <path d="M 235.562515 227.866522 
L 233.805253 229.485605 
" style="fill: none; stroke: #000000; stroke-width: 0.8; stroke-linecap: square"/>
    </g>
    <g id="text_5">
     <!-- 295 -->
     <g transform="translate(219.335994 244.367426) scale(0.1 -0.1)">
      <use xlink:href="#DejaVuSans-32"/>
      <use xlink:href="#DejaVuSans-39" x="63.623047"/>
      <use xlink:href="#DejaVuSans-35" x="127.246094"/>
     </g>
    </g>
   </g>
   <g id="xtick_6">
    <g id="line2d_7">
     <path d="M 267.475166 237.724844 
L 265.757219 239.380134 
" style="fill: none; stroke: #000000; stroke-width: 0.8; stroke-linecap: square"/>
    </g>
    <g id="text_6">
     <!-- 300 -->
     <g transform="translate(251.361696 254.383219) scale(0.1 -0.1)">
      <defs>
       <path id="DejaVuSans-33" d="M 2597 2516 
Q 3050 2419 3304 2112 
Q 3559 1806 3559 1356 
Q 3559 666 3084 287 
Q 2609 -91 1734 -91 
Q 1441 -91 1130 -33 
Q 819 25 488 141 
L 488 750 
Q 750 597 1062 519 
Q 1375 441 1716 441 
Q 2309 441 2620 675 
Q 2931 909 2931 1356 
Q 2931 1769 2642 2001 
Q 2353 2234 1838 2234 
L 1294 2234 
L 1294 2753 
L 1863 2753 
Q 2328 2753 2575 2939 
Q 2822 3125 2822 3475 
Q 2822 3834 2567 4026 
Q 2313 4219 1838 4219 
Q 1578 4219 1281 4162 
Q 984 4106 628 3988 
L 628 4550 
Q 988 4650 1302 4700 
Q 1616 4750 1894 4750 
Q 2613 4750 3031 4423 
Q 3450 4097 3450 3541 
Q 3450 3153 3228 2886 
Q 3006 2619 2597 2516 
z
" transform="scale(0.015625)"/>
      </defs>
      <use xlink:href="#DejaVuSans-33"/>
      <use xlink:href="#DejaVuSans-30" x="63.623047"/>
      <use xlink:href="#DejaVuSans-30" x="127.246094"/>
     </g>
    </g>
   </g>
   <g id="xtick_7">
    <g id="line2d_8">
     <path d="M 300.104817 247.804659 
L 298.428407 249.497383 
" style="fill: none; stroke: #000000; stroke-width: 0.8; stroke-linecap: square"/>
    </g>
    <g id="text_7">
     <!-- 305 -->
     <g transform="translate(284.111218 264.625381) scale(0.1 -0.1)">
      <use xlink:href="#DejaVuSans-33"/>
      <use xlink:href="#DejaVuSans-30" x="63.623047"/>
      <use xlink:href="#DejaVuSans-35" x="127.246094"/>
     </g>
    </g>
   </g>
  </g>
  <g id="axis3d_2">
   <g id="line2d_9">
    <path d="M 374.468696 185.807309 
L 310.245157 251.6758 
" style="fill: none; stroke: #000000; stroke-width: 0.8; stroke-linecap: square"/>
   </g>
   <g id="xtick_8">
    <g id="line2d_10">
     <path d="M 315.745748 243.69528 
L 321.022116 245.309257 
" style="fill: none; stroke: #000000; stroke-width: 0.8; stroke-linecap: square"/>
    </g>
    <g id="text_8">
     <!-- −15 -->
     <g transform="translate(325.183742 260.206279) scale(0.1 -0.1)">
      <defs>
       <path id="DejaVuSans-2212" d="M 678 2272 
L 4684 2272 
L 4684 1741 
L 678 1741 
L 678 2272 
z
" transform="scale(0.015625)"/>
       <path id="DejaVuSans-31" d="M 794 531 
L 1825 531 
L 1825 4091 
L 703 3866 
L 703 4441 
L 1819 4666 
L 2450 4666 
L 2450 531 
L 3481 531 
L 3481 0 
L 794 0 
L 794 531 
z
" transform="scale(0.015625)"/>
      </defs>
      <use xlink:href="#DejaVuSans-2212"/>
      <use xlink:href="#DejaVuSans-31" x="83.789062"/>
      <use xlink:href="#DejaVuSans-35" x="147.412109"/>
     </g>
    </g>
   </g>
   <g id="xtick_9">
    <g id="line2d_11">
     <path d="M 324.619073 234.618189 
L 329.858019 236.199862 
" style="fill: none; stroke: #000000; stroke-width: 0.8; stroke-linecap: square"/>
    </g>
    <g id="text_9">
     <!-- −10 -->
     <g transform="translate(333.904712 250.988321) scale(0.1 -0.1)">
      <use xlink:href="#DejaVuSans-2212"/>
      <use xlink:href="#DejaVuSans-31" x="83.789062"/>
      <use xlink:href="#DejaVuSans-30" x="147.412109"/>
     </g>
    </g>
   </g>
   <g id="xtick_10">
    <g id="line2d_12">
     <path d="M 333.31583 225.721721 
L 338.517791 227.27205 
" style="fill: none; stroke: #000000; stroke-width: 0.8; stroke-linecap: square"/>
    </g>
    <g id="text_10">
     <!-- −5 -->
     <g transform="translate(345.632433 241.954806) scale(0.1 -0.1)">
      <use xlink:href="#DejaVuSans-2212"/>
      <use xlink:href="#DejaVuSans-35" x="83.789062"/>
     </g>
    </g>
   </g>
   <g id="xtick_11">
    <g id="line2d_13">
     <path d="M 341.841237 217.000538 
L 347.006645 218.520445 
" style="fill: none; stroke: #000000; stroke-width: 0.8; stroke-linecap: square"/>
    </g>
    <g id="text_11">
     <!-- 0 -->
     <g transform="translate(358.199435 233.100253) scale(0.1 -0.1)">
      <use xlink:href="#DejaVuSans-30"/>
     </g>
    </g>
   </g>
   <g id="xtick_12">
    <g id="line2d_14">
     <path d="M 350.200308 208.44951 
L 355.329592 209.939882 
" style="fill: none; stroke: #000000; stroke-width: 0.8; stroke-linecap: square"/>
    </g>
    <g id="text_12">
     <!-- 5 -->
     <g transform="translate(366.412263 224.419395) scale(0.1 -0.1)">
      <use xlink:href="#DejaVuSans-35"/>
     </g>
    </g>
   </g>
   <g id="xtick_13">
    <g id="line2d_15">
     <path d="M 358.397865 200.063705 
L 363.49145 201.525396 
" style="fill: none; stroke: #000000; stroke-width: 0.8; stroke-linecap: square"/>
    </g>
    <g id="text_13">
     <!-- 10 -->
     <g transform="translate(371.284298 215.907171) scale(0.1 -0.1)">
      <use xlink:href="#DejaVuSans-31"/>
      <use xlink:href="#DejaVuSans-30" x="63.623047"/>
     </g>
    </g>
   </g>
   <g id="xtick_14">
    <g id="line2d_16">
     <path d="M 366.438544 191.838381 
L 371.49685 193.27221 
" style="fill: none; stroke: #000000; stroke-width: 0.8; stroke-linecap: square"/>
    </g>
    <g id="text_14">
     <!-- 15 -->
     <g transform="translate(379.182646 207.558716) scale(0.1 -0.1)">
      <use xlink:href="#DejaVuSans-31"/>
      <use xlink:href="#DejaVuSans-35" x="63.623047"/>
     </g>
    </g>
   </g>
  </g>
  <g id="axis3d_3">
   <g id="line2d_17">
    <path d="M 374.468696 185.807309 
L 376.222386 153.567149 
" style="fill: none; stroke: #000000; stroke-width: 0.8; stroke-linecap: square"/>
   </g>
   <g id="xtick_15">
    <g id="line2d_18">
     <path d="M 372.992319 181.641215 
L 378.030407 183.049135 
" style="fill: none; stroke: #000000; stroke-width: 0.8; stroke-linecap: square"/>
    </g>
    <g id="text_15">
     <!-- −0.4 -->
     <g transform="translate(384.881021 189.517633) scale(0.1 -0.1)">
      <defs>
       <path id="DejaVuSans-2e" d="M 684 794 
L 1344 794 
L 1344 0 
L 684 0 
L 684 794 
z
" transform="scale(0.015625)"/>
       <path id="DejaVuSans-34" d="M 2419 4116 
L 825 1625 
L 2419 1625 
L 2419 4116 
z
M 2253 4666 
L 3047 4666 
L 3047 1625 
L 3713 1625 
L 3713 1100 
L 3047 1100 
L 3047 0 
L 2419 0 
L 2419 1100 
L 313 1100 
L 313 1709 
L 2253 4666 
z
" transform="scale(0.015625)"/>
      </defs>
      <use xlink:href="#DejaVuSans-2212"/>
      <use xlink:href="#DejaVuSans-30" x="83.789062"/>
      <use xlink:href="#DejaVuSans-2e" x="147.412109"/>
      <use xlink:href="#DejaVuSans-34" x="179.199219"/>
     </g>
    </g>
   </g>
   <g id="xtick_16">
    <g id="line2d_19">
     <path d="M 373.32218 175.499481 
L 378.373315 176.900588 
" style="fill: none; stroke: #000000; stroke-width: 0.8; stroke-linecap: square"/>
    </g>
    <g id="text_16">
     <!-- −0.2 -->
     <g transform="translate(385.270503 183.374553) scale(0.1 -0.1)">
      <use xlink:href="#DejaVuSans-2212"/>
      <use xlink:href="#DejaVuSans-30" x="83.789062"/>
      <use xlink:href="#DejaVuSans-2e" x="147.412109"/>
      <use xlink:href="#DejaVuSans-32" x="179.199219"/>
     </g>
    </g>
   </g>
   <g id="xtick_17">
    <g id="line2d_20">
     <path d="M 373.653678 169.32726 
L 378.717928 170.721469 
" style="fill: none; stroke: #000000; stroke-width: 0.8; stroke-linecap: square"/>
    </g>
    <g id="text_17">
     <!-- 0.0 -->
     <g transform="translate(389.851763 177.20097) scale(0.1 -0.1)">
      <use xlink:href="#DejaVuSans-30"/>
      <use xlink:href="#DejaVuSans-2e" x="63.623047"/>
      <use xlink:href="#DejaVuSans-30" x="95.410156"/>
     </g>
    </g>
   </g>
   <g id="xtick_18">
    <g id="line2d_21">
     <path d="M 373.986826 163.124326 
L 379.064259 164.511549 
" style="fill: none; stroke: #000000; stroke-width: 0.8; stroke-linecap: square"/>
    </g>
    <g id="text_18">
     <!-- 0.2 -->
     <g transform="translate(390.245128 170.996655) scale(0.1 -0.1)">
      <use xlink:href="#DejaVuSans-30"/>
      <use xlink:href="#DejaVuSans-2e" x="63.623047"/>
      <use xlink:href="#DejaVuSans-32" x="95.410156"/>
     </g>
    </g>
   </g>
   <g id="xtick_19">
    <g id="line2d_22">
     <path d="M 374.321636 156.890448 
L 379.412321 158.270599 
" style="fill: none; stroke: #000000; stroke-width: 0.8; stroke-linecap: square"/>
    </g>
    <g id="text_19">
     <!-- 0.4 -->
     <g transform="translate(390.640456 164.76138) scale(0.1 -0.1)">
      <use xlink:href="#DejaVuSans-30"/>
      <use xlink:href="#DejaVuSans-2e" x="63.623047"/>
      <use xlink:href="#DejaVuSans-34" x="95.410156"/>
     </g>
    </g>
   </g>
  </g>
  <g id="axes_1">
   <g id="line2d_23">
    <path d="M 208.470314 213.921503 
L 209.665406 212.867339 
L 209.276966 181.246524 
L 208.065952 182.27561 
L 208.470314 213.921503 
" clip-path="url(#p71758e0647)" style="fill: none; stroke: #808080; stroke-width: 0.2; stroke-linecap: square"/>
   </g>
   <g id="line2d_24">
    <path d="M 209.665406 212.867339 
L 210.857617 211.815717 
L 210.485023 180.21995 
L 209.276966 181.246524 
L 209.665406 212.867339 
" clip-path="url(#p71758e0647)" style="fill: none; stroke: #808080; stroke-width: 0.2; stroke-linecap: square"/>
   </g>
   <g id="line2d_25">
    <path d="M 210.857617 211.815717 
L 212.046958 210.766626 
L 211.690133 179.19588 
L 210.485023 180.21995 
L 210.857617 211.815717 
" clip-path="url(#p71758e0647)" style="fill: none; stroke: #808080; stroke-width: 0.2; stroke-linecap: square"/>
   </g>
   <g id="line2d_26">
    <path d="M 212.046958 210.766626 
L 213.233438 209.720059 
L 212.892308 178.174304 
L 211.690133 179.19588 
L 212.046958 210.766626 
" clip-path="url(#p71758e0647)" style="fill: none; stroke: #808080; stroke-width: 0.2; stroke-linecap: square"/>
   </g>
   <g id="line2d_27">
    <path d="M 213.233438 209.720059 
L 214.417068 208.676006 
L 214.091558 177.155214 
L 212.892308 178.174304 
L 213.233438 209.720059 
" clip-path="url(#p71758e0647)" style="fill: none; stroke: #808080; stroke-width: 0.2; stroke-linecap: square"/>
   </g>
   <g id="line2d_28">
    <path d="M 214.417068 208.676006 
L 215.597858 207.634458 
L 215.287894 176.138601 
L 214.091558 177.155214 
L 214.417068 208.676006 
" clip-path="url(#p71758e0647)" style="fill: none; stroke: #808080; stroke-width: 0.2; stroke-linecap: square"/>
   </g>
   <g id="line2d_29">
    <path d="M 215.597858 207.634458 
L 216.775819 206.595406 
L 216.481327 175.124455 
L 215.287894 176.138601 
L 215.597858 207.634458 
" clip-path="url(#p71758e0647)" style="fill: none; stroke: #808080; stroke-width: 0.2; stroke-linecap: square"/>
   </g>
   <g id="line2d_30">
    <path d="M 216.775819 206.595406 
L 217.95096 205.558841 
L 217.671866 174.112767 
L 216.481327 175.124455 
L 216.775819 206.595406 
" clip-path="url(#p71758e0647)" style="fill: none; stroke: #808080; stroke-width: 0.2; stroke-linecap: square"/>
   </g>
   <g id="line2d_31">
    <path d="M 217.95096 205.558841 
L 219.123291 204.524754 
L 218.859522 173.103529 
L 217.671866 174.112767 
L 217.95096 205.558841 
" clip-path="url(#p71758e0647)" style="fill: none; stroke: #808080; stroke-width: 0.2; stroke-linecap: square"/>
   </g>
   <g id="line2d_32">
    <path d="M 219.123291 204.524754 
L 220.292824 203.493136 
L 220.044307 172.096731 
L 218.859522 173.103529 
L 219.123291 204.524754 
" clip-path="url(#p71758e0647)" style="fill: none; stroke: #808080; stroke-width: 0.2; stroke-linecap: square"/>
   </g>
   <g id="line2d_33">
    <path d="M 220.292824 203.493136 
L 221.459567 202.463978 
L 221.22623 171.092365 
L 220.044307 172.096731 
L 220.292824 203.493136 
" clip-path="url(#p71758e0647)" style="fill: none; stroke: #808080; stroke-width: 0.2; stroke-linecap: square"/>
   </g>
   <g id="line2d_34">
    <path d="M 221.459567 202.463978 
L 222.623531 201.437272 
L 222.405301 170.090422 
L 221.22623 171.092365 
L 221.459567 202.463978 
" clip-path="url(#p71758e0647)" style="fill: none; stroke: #808080; stroke-width: 0.2; stroke-linecap: square"/>
   </g>
   <g id="line2d_35">
    <path d="M 222.623531 201.437272 
L 223.784726 200.413008 
L 223.581532 169.090894 
L 222.405301 170.090422 
L 222.623531 201.437272 
" clip-path="url(#p71758e0647)" style="fill: none; stroke: #808080; stroke-width: 0.2; stroke-linecap: square"/>
   </g>
   <g id="line2d_36">
    <path d="M 223.784726 200.413008 
L 224.943161 199.391179 
L 224.754932 168.093771 
L 223.581532 169.090894 
L 223.784726 200.413008 
" clip-path="url(#p71758e0647)" style="fill: none; stroke: #808080; stroke-width: 0.2; stroke-linecap: square"/>
   </g>
   <g id="line2d_37">
    <path d="M 224.943161 199.391179 
L 226.098846 198.371776 
L 225.925511 167.099044 
L 224.754932 168.093771 
L 224.943161 199.391179 
" clip-path="url(#p71758e0647)" style="fill: none; stroke: #808080; stroke-width: 0.2; stroke-linecap: square"/>
   </g>
   <g id="line2d_38">
    <path d="M 226.098846 198.371776 
L 227.251791 197.354789 
L 227.09328 166.106706 
L 225.925511 167.099044 
L 226.098846 198.371776 
" clip-path="url(#p71758e0647)" style="fill: none; stroke: #808080; stroke-width: 0.2; stroke-linecap: square"/>
   </g>
   <g id="line2d_39">
    <path d="M 227.251791 197.354789 
L 228.402007 196.34021 
L 228.258248 165.116748 
L 227.09328 166.106706 
L 227.251791 197.354789 
" clip-path="url(#p71758e0647)" style="fill: none; stroke: #808080; stroke-width: 0.2; stroke-linecap: square"/>
   </g>
   <g id="line2d_40">
    <path d="M 228.402007 196.34021 
L 229.549501 195.328031 
L 229.420427 164.12916 
L 228.258248 165.116748 
L 228.402007 196.34021 
" clip-path="url(#p71758e0647)" style="fill: none; stroke: #808080; stroke-width: 0.2; stroke-linecap: square"/>
   </g>
   <g id="line2d_41">
    <path d="M 229.549501 195.328031 
L 230.694285 194.318243 
L 230.579825 163.143935 
L 229.420427 164.12916 
L 229.549501 195.328031 
" clip-path="url(#p71758e0647)" style="fill: none; stroke: #808080; stroke-width: 0.2; stroke-linecap: square"/>
   </g>
   <g id="line2d_42">
    <path d="M 230.694285 194.318243 
L 231.836368 193.310838 
L 231.736453 162.161065 
L 230.579825 163.143935 
L 230.694285 194.318243 
" clip-path="url(#p71758e0647)" style="fill: none; stroke: #808080; stroke-width: 0.2; stroke-linecap: square"/>
   </g>
   <g id="line2d_43">
    <path d="M 231.836368 193.310838 
L 232.975759 192.305807 
L 232.89032 161.180539 
L 231.736453 162.161065 
L 231.836368 193.310838 
" clip-path="url(#p71758e0647)" style="fill: none; stroke: #808080; stroke-width: 0.2; stroke-linecap: square"/>
   </g>
   <g id="line2d_44">
    <path d="M 232.975759 192.305807 
L 234.112468 191.303142 
L 234.041437 160.202352 
L 232.89032 161.180539 
L 232.975759 192.305807 
" clip-path="url(#p71758e0647)" style="fill: none; stroke: #808080; stroke-width: 0.2; stroke-linecap: square"/>
   </g>
   <g id="line2d_45">
    <path d="M 234.112468 191.303142 
L 235.246504 190.302835 
L 235.189814 159.226493 
L 234.041437 160.202352 
L 234.112468 191.303142 
" clip-path="url(#p71758e0647)" style="fill: none; stroke: #808080; stroke-width: 0.2; stroke-linecap: square"/>
   </g>
   <g id="line2d_46">
    <path d="M 235.246504 190.302835 
L 236.377876 189.304876 
L 236.335459 158.252954 
L 235.189814 159.226493 
L 235.246504 190.302835 
" clip-path="url(#p71758e0647)" style="fill: none; stroke: #808080; stroke-width: 0.2; stroke-linecap: square"/>
   </g>
   <g id="line2d_47">
    <path d="M 236.377876 189.304876 
L 237.506595 188.309259 
L 237.478384 157.281728 
L 236.335459 158.252954 
L 236.377876 189.304876 
" clip-path="url(#p71758e0647)" style="fill: none; stroke: #808080; stroke-width: 0.2; stroke-linecap: square"/>
   </g>
   <g id="line2d_48">
    <path d="M 237.506595 188.309259 
L 238.632669 187.315975 
L 238.618597 156.312806 
L 237.478384 157.281728 
L 237.506595 188.309259 
" clip-path="url(#p71758e0647)" style="fill: none; stroke: #808080; stroke-width: 0.2; stroke-linecap: square"/>
   </g>
   <g id="line2d_49">
    <path d="M 238.632669 187.315975 
L 239.756108 186.325015 
L 239.756108 155.34618 
L 238.618597 156.312806 
L 238.632669 187.315975 
" clip-path="url(#p71758e0647)" style="fill: none; stroke: #808080; stroke-width: 0.2; stroke-linecap: square"/>
   </g>
   <g id="line2d_50">
    <path d="M 239.756108 186.325015 
L 241.100769 185.13892 
L 241.117569 154.189248 
L 239.756108 155.34618 
L 239.756108 186.325015 
" clip-path="url(#p71758e0647)" style="fill: none; stroke: #808080; stroke-width: 0.2; stroke-linecap: square"/>
   </g>
   <g id="line2d_51">
    <path d="M 241.100769 185.13892 
L 242.441664 183.956147 
L 242.475169 153.035597 
L 241.117569 154.189248 
L 241.100769 185.13892 
" clip-path="url(#p71758e0647)" style="fill: none; stroke: #808080; stroke-width: 0.2; stroke-linecap: square"/>
   </g>
   <g id="line2d_52">
    <path d="M 242.441664 183.956147 
L 243.77881 182.776682 
L 243.828925 151.885212 
L 242.475169 153.035597 
L 242.441664 183.956147 
" clip-path="url(#p71758e0647)" style="fill: none; stroke: #808080; stroke-width: 0.2; stroke-linecap: square"/>
   </g>
   <g id="line2d_53">
    <path d="M 243.77881 182.776682 
L 245.112221 181.60051 
L 245.178854 150.738079 
L 243.828925 151.885212 
L 243.77881 182.776682 
" clip-path="url(#p71758e0647)" style="fill: none; stroke: #808080; stroke-width: 0.2; stroke-linecap: square"/>
   </g>
   <g id="line2d_54">
    <path d="M 245.112221 181.60051 
L 246.441913 180.427618 
L 246.524971 149.594185 
L 245.178854 150.738079 
L 245.112221 181.60051 
" clip-path="url(#p71758e0647)" style="fill: none; stroke: #808080; stroke-width: 0.2; stroke-linecap: square"/>
   </g>
   <g id="line2d_55">
    <path d="M 246.441913 180.427618 
L 247.767903 179.257993 
L 247.867293 148.453517 
L 246.524971 149.594185 
L 246.441913 180.427618 
" clip-path="url(#p71758e0647)" style="fill: none; stroke: #808080; stroke-width: 0.2; stroke-linecap: square"/>
   </g>
   <g id="line2d_56">
    <path d="M 247.767903 179.257993 
L 249.090205 178.091621 
L 249.205836 147.31606 
L 247.867293 148.453517 
L 247.767903 179.257993 
" clip-path="url(#p71758e0647)" style="fill: none; stroke: #808080; stroke-width: 0.2; stroke-linecap: square"/>
   </g>
   <g id="line2d_57">
    <path d="M 249.090205 178.091621 
L 250.408834 176.928487 
L 250.540615 146.1818 
L 249.205836 147.31606 
L 249.090205 178.091621 
" clip-path="url(#p71758e0647)" style="fill: none; stroke: #808080; stroke-width: 0.2; stroke-linecap: square"/>
   </g>
   <g id="line2d_58">
    <path d="M 250.408834 176.928487 
L 251.723807 175.76858 
L 251.871647 145.050726 
L 250.540615 146.1818 
L 250.408834 176.928487 
" clip-path="url(#p71758e0647)" style="fill: none; stroke: #808080; stroke-width: 0.2; stroke-linecap: square"/>
   </g>
   <g id="line2d_59">
    <path d="M 251.723807 175.76858 
L 253.035138 174.611885 
L 253.198947 143.922822 
L 251.871647 145.050726 
L 251.723807 175.76858 
" clip-path="url(#p71758e0647)" style="fill: none; stroke: #808080; stroke-width: 0.2; stroke-linecap: square"/>
   </g>
   <g id="line2d_60">
    <path d="M 253.035138 174.611885 
L 254.342842 173.458388 
L 254.522532 142.798077 
L 253.198947 143.922822 
L 253.035138 174.611885 
" clip-path="url(#p71758e0647)" style="fill: none; stroke: #808080; stroke-width: 0.2; stroke-linecap: square"/>
   </g>
   <g id="line2d_61">
    <path d="M 254.342842 173.458388 
L 255.646935 172.308078 
L 255.842415 141.676475 
L 254.522532 142.798077 
L 254.342842 173.458388 
" clip-path="url(#p71758e0647)" style="fill: none; stroke: #808080; stroke-width: 0.2; stroke-linecap: square"/>
   </g>
   <g id="line2d_62">
    <path d="M 255.646935 172.308078 
L 256.947431 171.16094 
L 257.158614 140.558005 
L 255.842415 141.676475 
L 255.646935 172.308078 
" clip-path="url(#p71758e0647)" style="fill: none; stroke: #808080; stroke-width: 0.2; stroke-linecap: square"/>
   </g>
   <g id="line2d_63">
    <path d="M 256.947431 171.16094 
L 258.244345 170.016961 
L 258.471143 139.442654 
L 257.158614 140.558005 
L 256.947431 171.16094 
" clip-path="url(#p71758e0647)" style="fill: none; stroke: #808080; stroke-width: 0.2; stroke-linecap: square"/>
   </g>
   <g id="line2d_64">
    <path d="M 258.244345 170.016961 
L 259.537692 168.876129 
L 259.780018 138.330408 
L 258.471143 139.442654 
L 258.244345 170.016961 
" clip-path="url(#p71758e0647)" style="fill: none; stroke: #808080; stroke-width: 0.2; stroke-linecap: square"/>
   </g>
   <g id="line2d_65">
    <path d="M 259.537692 168.876129 
L 260.716755 167.836105 
L 260.973198 137.316476 
L 259.780018 138.330408 
L 259.537692 168.876129 
" clip-path="url(#p71758e0647)" style="fill: none; stroke: #808080; stroke-width: 0.2; stroke-linecap: square"/>
   </g>
   <g id="line2d_66">
    <path d="M 260.716755 167.836105 
L 261.782107 166.896382 
L 262.051275 136.400356 
L 260.973198 137.316476 
L 260.716755 167.836105 
" clip-path="url(#p71758e0647)" style="fill: none; stroke: #808080; stroke-width: 0.2; stroke-linecap: square"/>
   </g>
   <g id="line2d_67">
    <path d="M 261.782107 166.896382 
L 262.744936 166.047093 
L 263.025577 135.57242 
L 262.051275 136.400356 
L 261.782107 166.896382 
" clip-path="url(#p71758e0647)" style="fill: none; stroke: #808080; stroke-width: 0.2; stroke-linecap: square"/>
   </g>
   <g id="line2d_68">
    <path d="M 262.744936 166.047093 
L 263.615286 165.279377 
L 263.906279 134.824024 
L 263.025577 135.57242 
L 262.744936 166.047093 
" clip-path="url(#p71758e0647)" style="fill: none; stroke: #808080; stroke-width: 0.2; stroke-linecap: square"/>
   </g>
   <g id="line2d_69">
    <path d="M 263.615286 165.279377 
L 264.402188 164.585269 
L 264.702521 134.147399 
L 263.906279 134.824024 
L 263.615286 165.279377 
" clip-path="url(#p71758e0647)" style="fill: none; stroke: #808080; stroke-width: 0.2; stroke-linecap: square"/>
   </g>
   <g id="line2d_70">
    <path d="M 264.402188 164.585269 
L 265.113761 163.957607 
L 265.422527 133.535558 
L 264.702521 134.147399 
L 264.402188 164.585269 
" clip-path="url(#p71758e0647)" style="fill: none; stroke: #808080; stroke-width: 0.2; stroke-linecap: square"/>
   </g>
   <g id="line2d_71">
    <path d="M 265.113761 163.957607 
L 265.757314 163.389942 
L 266.073696 132.982212 
L 265.422527 133.535558 
L 265.113761 163.957607 
" clip-path="url(#p71758e0647)" style="fill: none; stroke: #808080; stroke-width: 0.2; stroke-linecap: square"/>
   </g>
   <g id="line2d_72">
    <path d="M 265.757314 163.389942 
L 266.339431 162.876471 
L 266.662691 132.4817 
L 266.073696 132.982212 
L 265.757314 163.389942 
" clip-path="url(#p71758e0647)" style="fill: none; stroke: #808080; stroke-width: 0.2; stroke-linecap: square"/>
   </g>
   <g id="line2d_73">
    <path d="M 266.339431 162.876471 
L 266.866041 162.41196 
L 267.195517 132.028919 
L 266.662691 132.4817 
L 266.339431 162.876471 
" clip-path="url(#p71758e0647)" style="fill: none; stroke: #808080; stroke-width: 0.2; stroke-linecap: square"/>
   </g>
   <g id="line2d_74">
    <path d="M 266.866041 162.41196 
L 267.342491 161.991694 
L 267.677584 131.619272 
L 267.195517 132.028919 
L 266.866041 162.41196 
" clip-path="url(#p71758e0647)" style="fill: none; stroke: #808080; stroke-width: 0.2; stroke-linecap: square"/>
   </g>
   <g id="line2d_75">
    <path d="M 267.342491 161.991694 
L 267.773603 161.61142 
L 268.113773 131.24861 
L 267.677584 131.619272 
L 267.342491 161.991694 
" clip-path="url(#p71758e0647)" style="fill: none; stroke: #808080; stroke-width: 0.2; stroke-linecap: square"/>
   </g>
   <g id="line2d_76">
    <path d="M 267.773603 161.61142 
L 268.163727 161.2673 
L 268.508488 130.913193 
L 268.113773 131.24861 
L 267.773603 161.61142 
" clip-path="url(#p71758e0647)" style="fill: none; stroke: #808080; stroke-width: 0.2; stroke-linecap: square"/>
   </g>
   <g id="line2d_77">
    <path d="M 268.163727 161.2673 
L 268.51679 160.955872 
L 268.865701 130.609643 
L 268.508488 130.913193 
L 268.163727 161.2673 
" clip-path="url(#p71758e0647)" style="fill: none; stroke: #808080; stroke-width: 0.2; stroke-linecap: square"/>
   </g>
   <g id="line2d_78">
    <path d="M 268.51679 160.955872 
L 268.836335 160.674008 
L 269.189001 130.334911 
L 268.865701 130.609643 
L 268.51679 160.955872 
" clip-path="url(#p71758e0647)" style="fill: none; stroke: #808080; stroke-width: 0.2; stroke-linecap: square"/>
   </g>
   <g id="line2d_79">
    <path d="M 268.836335 160.674008 
L 269.125566 160.418884 
L 269.481627 130.086245 
L 269.189001 130.334911 
L 268.836335 160.674008 
" clip-path="url(#p71758e0647)" style="fill: none; stroke: #808080; stroke-width: 0.2; stroke-linecap: square"/>
   </g>
  </g>
 </g>
 <defs>
  <clipPath id="p71758e0647">
   <rect x="103.104" y="41.472" width="266.112" height="266.112"/>
  </clipPath>
 </defs>
</svg>
