<?xml version="1.0" encoding="utf-8" standalone="no"?>
<!DOCTYPE svg PUBLIC "-//W3C//DTD SVG 1.1//EN"
  "http://www.w3.org/Graphics/SVG/1.1/DTD/svg11.dtd">
<svg xmlns:xlink="http://www.w3.org/1999/xlink" width="460.8pt" height="345.6pt" viewBox="0 0 460.8 345.6" xmlns="http://www.w3.org/2000/svg" version="1.1">
 <metadata>
  <rdf:RDF xmlns:dc="http://purl.org/dc/elements/1.1/" xmlns:cc="http://creativecommons.org/ns#" xmlns:rdf="http://www.w3.org/1999/02/22-rdf-syntax-ns#">
   <cc:Work>
    <dc:type rdf:resource="http://purl.org/dc/dcmitype/StillImage"/>
    <dc:date>2024-02-01T22:03:24.684454</dc:date>
    <dc:format>image/svg+xml</dc:format>
    <dc:creator>
     <cc:Agent>
      <dc:title>Matplotlib v3.7.1, https://matplotlib.org/</dc:title>
     </cc:Agent>
    </dc:creator>
   </cc:Work>
  </rdf:RDF>
 </metadata>
 <defs>
  <style type="text/css">*{stroke-linejoin: round; stroke-linecap: butt}</style>
 </defs>
 <g id="figure_1">
  <g id="patch_1">
   <path d="M 0 345.6 
L 460.8 345.6 
L 460.8 0 
L 0 0 
z
" style="fill: #ffffff"/>
  </g>
  <g id="patch_2">
   <path d="M 103.104 307.584 
L 369.216 307.584 
L 369.216 41.472 
L 103.104 41.472 
z
" style="fill: #ffffff"/>
  </g>
  <g id="pane3d_1">
   <g id="patch_3">
    <path d="M 104.674919 188.120389 
L 178.615136 130.830879 
L 177.871594 100.04432 
L 102.911556 155.821057 
" style="fill: #f2f2f2; opacity: 0.5; stroke: #f2f2f2; stroke-linejoin: miter"/>
   </g>
  </g>
  <g id="pane3d_2">
   <g id="patch_4">
    <path d="M 178.615136 130.830879 
L 374.468696 185.807309 
L 376.222386 153.567149 
L 177.871594 100.04432 
" style="fill: #e6e6e6; opacity: 0.5; stroke: #e6e6e6; stroke-linejoin: miter"/>
   </g>
  </g>
  <g id="pane3d_3">
   <g id="patch_5">
    <path d="M 104.674919 188.120389 
L 310.245157 251.6758 
L 374.468696 185.807309 
L 178.615136 130.830879 
" style="fill: #ececec; opacity: 0.5; stroke: #ececec; stroke-linejoin: miter"/>
   </g>
  </g>
  <g id="axis3d_1">
   <g id="line2d_1">
    <path d="M 104.674919 188.120389 
L 310.245157 251.6758 
" style="fill: none; stroke: #000000; stroke-width: 0.8; stroke-linecap: square"/>
   </g>
   <g id="xtick_1">
    <g id="line2d_2">
     <path d="M 128.191851 194.698028 
L 126.311824 196.19824 
" style="fill: none; stroke: #000000; stroke-width: 0.8; stroke-linecap: square"/>
    </g>
    <g id="text_1">
     <!-- −21.5 -->
     <g transform="translate(105.836449 210.678622) scale(0.1 -0.1)">
      <defs>
       <path id="DejaVuSans-2212" d="M 678 2272 
L 4684 2272 
L 4684 1741 
L 678 1741 
L 678 2272 
z
" transform="scale(0.015625)"/>
       <path id="DejaVuSans-32" d="M 1228 531 
L 3431 531 
L 3431 0 
L 469 0 
L 469 531 
Q 828 903 1448 1529 
Q 2069 2156 2228 2338 
Q 2531 2678 2651 2914 
Q 2772 3150 2772 3378 
Q 2772 3750 2511 3984 
Q 2250 4219 1831 4219 
Q 1534 4219 1204 4116 
Q 875 4013 500 3803 
L 500 4441 
Q 881 4594 1212 4672 
Q 1544 4750 1819 4750 
Q 2544 4750 2975 4387 
Q 3406 4025 3406 3419 
Q 3406 3131 3298 2873 
Q 3191 2616 2906 2266 
Q 2828 2175 2409 1742 
Q 1991 1309 1228 531 
z
" transform="scale(0.015625)"/>
       <path id="DejaVuSans-31" d="M 794 531 
L 1825 531 
L 1825 4091 
L 703 3866 
L 703 4441 
L 1819 4666 
L 2450 4666 
L 2450 531 
L 3481 531 
L 3481 0 
L 794 0 
L 794 531 
z
" transform="scale(0.015625)"/>
       <path id="DejaVuSans-2e" d="M 684 794 
L 1344 794 
L 1344 0 
L 684 0 
L 684 794 
z
" transform="scale(0.015625)"/>
       <path id="DejaVuSans-35" d="M 691 4666 
L 3169 4666 
L 3169 4134 
L 1269 4134 
L 1269 2991 
Q 1406 3038 1543 3061 
Q 1681 3084 1819 3084 
Q 2600 3084 3056 2656 
Q 3513 2228 3513 1497 
Q 3513 744 3044 326 
Q 2575 -91 1722 -91 
Q 1428 -91 1123 -41 
Q 819 9 494 109 
L 494 744 
Q 775 591 1075 516 
Q 1375 441 1709 441 
Q 2250 441 2565 725 
Q 2881 1009 2881 1497 
Q 2881 1984 2565 2268 
Q 2250 2553 1709 2553 
Q 1456 2553 1204 2497 
Q 953 2441 691 2322 
L 691 4666 
z
" transform="scale(0.015625)"/>
      </defs>
      <use xlink:href="#DejaVuSans-2212"/>
      <use xlink:href="#DejaVuSans-32" x="83.789062"/>
      <use xlink:href="#DejaVuSans-31" x="147.412109"/>
      <use xlink:href="#DejaVuSans-2e" x="211.035156"/>
      <use xlink:href="#DejaVuSans-35" x="242.822266"/>
     </g>
    </g>
   </g>
   <g id="xtick_2">
    <g id="line2d_3">
     <path d="M 169.986781 207.609142 
L 168.152798 209.155086 
" style="fill: none; stroke: #000000; stroke-width: 0.8; stroke-linecap: square"/>
    </g>
    <g id="text_2">
     <!-- −21.0 -->
     <g transform="translate(147.762041 223.79053) scale(0.1 -0.1)">
      <defs>
       <path id="DejaVuSans-30" d="M 2034 4250 
Q 1547 4250 1301 3770 
Q 1056 3291 1056 2328 
Q 1056 1369 1301 889 
Q 1547 409 2034 409 
Q 2525 409 2770 889 
Q 3016 1369 3016 2328 
Q 3016 3291 2770 3770 
Q 2525 4250 2034 4250 
z
M 2034 4750 
Q 2819 4750 3233 4129 
Q 3647 3509 3647 2328 
Q 3647 1150 3233 529 
Q 2819 -91 2034 -91 
Q 1250 -91 836 529 
Q 422 1150 422 2328 
Q 422 3509 836 4129 
Q 1250 4750 2034 4750 
z
" transform="scale(0.015625)"/>
      </defs>
      <use xlink:href="#DejaVuSans-2212"/>
      <use xlink:href="#DejaVuSans-32" x="83.789062"/>
      <use xlink:href="#DejaVuSans-31" x="147.412109"/>
      <use xlink:href="#DejaVuSans-2e" x="211.035156"/>
      <use xlink:href="#DejaVuSans-30" x="242.822266"/>
     </g>
    </g>
   </g>
   <g id="xtick_3">
    <g id="line2d_4">
     <path d="M 213.06447 220.91652 
L 211.28027 222.51032 
" style="fill: none; stroke: #000000; stroke-width: 0.8; stroke-linecap: square"/>
    </g>
    <g id="text_3">
     <!-- −20.5 -->
     <g transform="translate(190.981831 237.307187) scale(0.1 -0.1)">
      <use xlink:href="#DejaVuSans-2212"/>
      <use xlink:href="#DejaVuSans-32" x="83.789062"/>
      <use xlink:href="#DejaVuSans-30" x="147.412109"/>
      <use xlink:href="#DejaVuSans-2e" x="211.035156"/>
      <use xlink:href="#DejaVuSans-35" x="242.822266"/>
     </g>
    </g>
   </g>
   <g id="xtick_4">
    <g id="line2d_5">
     <path d="M 257.484895 234.638692 
L 255.754501 236.282604 
" style="fill: none; stroke: #000000; stroke-width: 0.8; stroke-linecap: square"/>
    </g>
    <g id="text_4">
     <!-- −20.0 -->
     <g transform="translate(235.556683 251.247631) scale(0.1 -0.1)">
      <use xlink:href="#DejaVuSans-2212"/>
      <use xlink:href="#DejaVuSans-32" x="83.789062"/>
      <use xlink:href="#DejaVuSans-30" x="147.412109"/>
      <use xlink:href="#DejaVuSans-2e" x="211.035156"/>
      <use xlink:href="#DejaVuSans-30" x="242.822266"/>
     </g>
    </g>
   </g>
   <g id="xtick_5">
    <g id="line2d_6">
     <path d="M 303.311829 248.795356 
L 301.639575 250.491781 
" style="fill: none; stroke: #000000; stroke-width: 0.8; stroke-linecap: square"/>
    </g>
    <g id="text_5">
     <!-- −19.5 -->
     <g transform="translate(281.551339 265.632107) scale(0.1 -0.1)">
      <defs>
       <path id="DejaVuSans-39" d="M 703 97 
L 703 672 
Q 941 559 1184 500 
Q 1428 441 1663 441 
Q 2288 441 2617 861 
Q 2947 1281 2994 2138 
Q 2813 1869 2534 1725 
Q 2256 1581 1919 1581 
Q 1219 1581 811 2004 
Q 403 2428 403 3163 
Q 403 3881 828 4315 
Q 1253 4750 1959 4750 
Q 2769 4750 3195 4129 
Q 3622 3509 3622 2328 
Q 3622 1225 3098 567 
Q 2575 -91 1691 -91 
Q 1453 -91 1209 -44 
Q 966 3 703 97 
z
M 1959 2075 
Q 2384 2075 2632 2365 
Q 2881 2656 2881 3163 
Q 2881 3666 2632 3958 
Q 2384 4250 1959 4250 
Q 1534 4250 1286 3958 
Q 1038 3666 1038 3163 
Q 1038 2656 1286 2365 
Q 1534 2075 1959 2075 
z
" transform="scale(0.015625)"/>
      </defs>
      <use xlink:href="#DejaVuSans-2212"/>
      <use xlink:href="#DejaVuSans-31" x="83.789062"/>
      <use xlink:href="#DejaVuSans-39" x="147.412109"/>
      <use xlink:href="#DejaVuSans-2e" x="211.035156"/>
      <use xlink:href="#DejaVuSans-35" x="242.822266"/>
     </g>
    </g>
   </g>
  </g>
  <g id="axis3d_2">
   <g id="line2d_7">
    <path d="M 374.468696 185.807309 
L 310.245157 251.6758 
" style="fill: none; stroke: #000000; stroke-width: 0.8; stroke-linecap: square"/>
   </g>
   <g id="xtick_6">
    <g id="line2d_8">
     <path d="M 312.868111 246.638998 
L 318.156548 248.263522 
" style="fill: none; stroke: #000000; stroke-width: 0.8; stroke-linecap: square"/>
    </g>
    <g id="text_6">
     <!-- 0 -->
     <g transform="translate(329.726396 263.195905) scale(0.1 -0.1)">
      <use xlink:href="#DejaVuSans-30"/>
     </g>
    </g>
   </g>
   <g id="xtick_7">
    <g id="line2d_9">
     <path d="M 324.505625 234.734242 
L 329.745052 236.316326 
" style="fill: none; stroke: #000000; stroke-width: 0.8; stroke-linecap: square"/>
    </g>
    <g id="text_7">
     <!-- 5 -->
     <g transform="translate(341.164312 251.106169) scale(0.1 -0.1)">
      <use xlink:href="#DejaVuSans-35"/>
     </g>
    </g>
   </g>
   <g id="xtick_8">
    <g id="line2d_10">
     <path d="M 335.841337 223.138218 
L 341.0325 224.679504 
" style="fill: none; stroke: #000000; stroke-width: 0.8; stroke-linecap: square"/>
    </g>
    <g id="text_8">
     <!-- 10 -->
     <g transform="translate(349.122713 239.331694) scale(0.1 -0.1)">
      <use xlink:href="#DejaVuSans-31"/>
      <use xlink:href="#DejaVuSans-30" x="63.623047"/>
     </g>
    </g>
   </g>
   <g id="xtick_9">
    <g id="line2d_11">
     <path d="M 346.886837 211.839071 
L 352.030474 213.341116 
" style="fill: none; stroke: #000000; stroke-width: 0.8; stroke-linecap: square"/>
    </g>
    <g id="text_9">
     <!-- 15 -->
     <g transform="translate(359.975617 227.860308) scale(0.1 -0.1)">
      <use xlink:href="#DejaVuSans-31"/>
      <use xlink:href="#DejaVuSans-35" x="63.623047"/>
     </g>
    </g>
   </g>
   <g id="xtick_10">
    <g id="line2d_12">
     <path d="M 357.653129 200.825543 
L 362.749969 202.289828 
" style="fill: none; stroke: #000000; stroke-width: 0.8; stroke-linecap: square"/>
    </g>
    <g id="text_10">
     <!-- 20 -->
     <g transform="translate(370.552704 216.680457) scale(0.1 -0.1)">
      <use xlink:href="#DejaVuSans-32"/>
      <use xlink:href="#DejaVuSans-30" x="63.623047"/>
     </g>
    </g>
   </g>
   <g id="xtick_11">
    <g id="line2d_13">
     <path d="M 368.150668 190.086941 
L 373.201428 191.514871 
" style="fill: none; stroke: #000000; stroke-width: 0.8; stroke-linecap: square"/>
    </g>
    <g id="text_11">
     <!-- 25 -->
     <g transform="translate(380.864357 205.781167) scale(0.1 -0.1)">
      <use xlink:href="#DejaVuSans-32"/>
      <use xlink:href="#DejaVuSans-35" x="63.623047"/>
     </g>
    </g>
   </g>
  </g>
  <g id="axis3d_3">
   <g id="line2d_14">
    <path d="M 374.468696 185.807309 
L 376.222386 153.567149 
" style="fill: none; stroke: #000000; stroke-width: 0.8; stroke-linecap: square"/>
   </g>
   <g id="xtick_12">
    <g id="line2d_15">
     <path d="M 372.992319 181.641215 
L 378.030407 183.049135 
" style="fill: none; stroke: #000000; stroke-width: 0.8; stroke-linecap: square"/>
    </g>
    <g id="text_12">
     <!-- −0.4 -->
     <g transform="translate(384.881021 189.517633) scale(0.1 -0.1)">
      <defs>
       <path id="DejaVuSans-34" d="M 2419 4116 
L 825 1625 
L 2419 1625 
L 2419 4116 
z
M 2253 4666 
L 3047 4666 
L 3047 1625 
L 3713 1625 
L 3713 1100 
L 3047 1100 
L 3047 0 
L 2419 0 
L 2419 1100 
L 313 1100 
L 313 1709 
L 2253 4666 
z
" transform="scale(0.015625)"/>
      </defs>
      <use xlink:href="#DejaVuSans-2212"/>
      <use xlink:href="#DejaVuSans-30" x="83.789062"/>
      <use xlink:href="#DejaVuSans-2e" x="147.412109"/>
      <use xlink:href="#DejaVuSans-34" x="179.199219"/>
     </g>
    </g>
   </g>
   <g id="xtick_13">
    <g id="line2d_16">
     <path d="M 373.32218 175.499481 
L 378.373315 176.900588 
" style="fill: none; stroke: #000000; stroke-width: 0.8; stroke-linecap: square"/>
    </g>
    <g id="text_13">
     <!-- −0.2 -->
     <g transform="translate(385.270503 183.374553) scale(0.1 -0.1)">
      <use xlink:href="#DejaVuSans-2212"/>
      <use xlink:href="#DejaVuSans-30" x="83.789062"/>
      <use xlink:href="#DejaVuSans-2e" x="147.412109"/>
      <use xlink:href="#DejaVuSans-32" x="179.199219"/>
     </g>
    </g>
   </g>
   <g id="xtick_14">
    <g id="line2d_17">
     <path d="M 373.653678 169.32726 
L 378.717928 170.721469 
" style="fill: none; stroke: #000000; stroke-width: 0.8; stroke-linecap: square"/>
    </g>
    <g id="text_14">
     <!-- 0.0 -->
     <g transform="translate(389.851763 177.20097) scale(0.1 -0.1)">
      <use xlink:href="#DejaVuSans-30"/>
      <use xlink:href="#DejaVuSans-2e" x="63.623047"/>
      <use xlink:href="#DejaVuSans-30" x="95.410156"/>
     </g>
    </g>
   </g>
   <g id="xtick_15">
    <g id="line2d_18">
     <path d="M 373.986826 163.124326 
L 379.064259 164.511549 
" style="fill: none; stroke: #000000; stroke-width: 0.8; stroke-linecap: square"/>
    </g>
    <g id="text_15">
     <!-- 0.2 -->
     <g transform="translate(390.245128 170.996655) scale(0.1 -0.1)">
      <use xlink:href="#DejaVuSans-30"/>
      <use xlink:href="#DejaVuSans-2e" x="63.623047"/>
      <use xlink:href="#DejaVuSans-32" x="95.410156"/>
     </g>
    </g>
   </g>
   <g id="xtick_16">
    <g id="line2d_19">
     <path d="M 374.321636 156.890448 
L 379.412321 158.270599 
" style="fill: none; stroke: #000000; stroke-width: 0.8; stroke-linecap: square"/>
    </g>
    <g id="text_16">
     <!-- 0.4 -->
     <g transform="translate(390.640456 164.76138) scale(0.1 -0.1)">
      <use xlink:href="#DejaVuSans-30"/>
      <use xlink:href="#DejaVuSans-2e" x="63.623047"/>
      <use xlink:href="#DejaVuSans-34" x="95.410156"/>
     </g>
    </g>
   </g>
  </g>
  <g id="axes_1">
   <g id="line2d_20">
    <path d="M 208.470314 213.921503 
L 208.065952 182.27561 
L 208.887161 181.577769 
L 209.280722 213.20666 
L 208.470314 213.921503 
" clip-path="url(#p326390c1c7)" style="fill: none; stroke: #808080; stroke-width: 0.2; stroke-linecap: square"/>
   </g>
   <g id="line2d_21">
    <path d="M 209.280722 213.20666 
L 208.887161 181.577769 
L 209.765802 180.831125 
L 210.147825 212.441808 
L 209.280722 213.20666 
" clip-path="url(#p326390c1c7)" style="fill: none; stroke: #808080; stroke-width: 0.2; stroke-linecap: square"/>
   </g>
   <g id="line2d_22">
    <path d="M 210.147825 212.441808 
L 209.765802 180.831125 
L 210.705775 180.032361 
L 211.075478 211.623547 
L 210.147825 212.441808 
" clip-path="url(#p326390c1c7)" style="fill: none; stroke: #808080; stroke-width: 0.2; stroke-linecap: square"/>
   </g>
   <g id="line2d_23">
    <path d="M 211.075478 211.623547 
L 210.705775 180.032361 
L 211.711231 179.177952 
L 212.06778 210.74826 
L 211.075478 211.623547 
" clip-path="url(#p326390c1c7)" style="fill: none; stroke: #808080; stroke-width: 0.2; stroke-linecap: square"/>
   </g>
   <g id="line2d_24">
    <path d="M 212.06778 210.74826 
L 211.711231 179.177952 
L 212.786583 178.264147 
L 213.129091 209.812101 
L 212.06778 210.74826 
" clip-path="url(#p326390c1c7)" style="fill: none; stroke: #808080; stroke-width: 0.2; stroke-linecap: square"/>
   </g>
   <g id="line2d_25">
    <path d="M 213.129091 209.812101 
L 212.786583 178.264147 
L 213.936518 177.286963 
L 214.264045 208.810984 
L 213.129091 209.812101 
" clip-path="url(#p326390c1c7)" style="fill: none; stroke: #808080; stroke-width: 0.2; stroke-linecap: square"/>
   </g>
   <g id="line2d_26">
    <path d="M 214.264045 208.810984 
L 213.936518 177.286963 
L 215.166014 176.242172 
L 215.47756 207.740571 
L 214.264045 208.810984 
" clip-path="url(#p326390c1c7)" style="fill: none; stroke: #808080; stroke-width: 0.2; stroke-linecap: square"/>
   </g>
   <g id="line2d_27">
    <path d="M 215.47756 207.740571 
L 215.166014 176.242172 
L 216.480351 175.125284 
L 216.774855 206.596256 
L 215.47756 207.740571 
" clip-path="url(#p326390c1c7)" style="fill: none; stroke: #808080; stroke-width: 0.2; stroke-linecap: square"/>
   </g>
   <g id="line2d_28">
    <path d="M 216.774855 206.596256 
L 216.480351 175.125284 
L 217.885128 173.931543 
L 218.161467 205.373157 
L 216.774855 206.596256 
" clip-path="url(#p326390c1c7)" style="fill: none; stroke: #808080; stroke-width: 0.2; stroke-linecap: square"/>
   </g>
   <g id="line2d_29">
    <path d="M 218.161467 205.373157 
L 217.885128 173.931543 
L 219.386276 172.655908 
L 219.643259 204.066102 
L 218.161467 205.373157 
" clip-path="url(#p326390c1c7)" style="fill: none; stroke: #808080; stroke-width: 0.2; stroke-linecap: square"/>
   </g>
   <g id="line2d_30">
    <path d="M 219.643259 204.066102 
L 219.386276 172.655908 
L 220.990074 171.293044 
L 221.226441 202.669613 
L 219.643259 204.066102 
" clip-path="url(#p326390c1c7)" style="fill: none; stroke: #808080; stroke-width: 0.2; stroke-linecap: square"/>
   </g>
   <g id="line2d_31">
    <path d="M 221.226441 202.669613 
L 220.990074 171.293044 
L 222.429434 170.069916 
L 222.647354 201.416258 
L 221.226441 202.669613 
" clip-path="url(#p326390c1c7)" style="fill: none; stroke: #808080; stroke-width: 0.2; stroke-linecap: square"/>
   </g>
   <g id="line2d_32">
    <path d="M 222.647354 201.416258 
L 222.429434 170.069916 
L 224.178311 168.583767 
L 224.37389 199.89332 
L 222.647354 201.416258 
" clip-path="url(#p326390c1c7)" style="fill: none; stroke: #808080; stroke-width: 0.2; stroke-linecap: square"/>
   </g>
   <g id="line2d_33">
    <path d="M 224.37389 199.89332 
L 224.178311 168.583767 
L 226.301762 166.779317 
L 226.470317 198.04411 
L 224.37389 199.89332 
" clip-path="url(#p326390c1c7)" style="fill: none; stroke: #808080; stroke-width: 0.2; stroke-linecap: square"/>
   </g>
   <g id="line2d_34">
    <path d="M 226.470317 198.04411 
L 226.301762 166.779317 
L 228.877794 164.590275 
L 229.01372 195.800632 
L 226.470317 198.04411 
" clip-path="url(#p326390c1c7)" style="fill: none; stroke: #808080; stroke-width: 0.2; stroke-linecap: square"/>
   </g>
   <g id="line2d_35">
    <path d="M 229.01372 195.800632 
L 228.877794 164.590275 
L 231.999612 161.937439 
L 232.096222 193.081626 
L 229.01372 195.800632 
" clip-path="url(#p326390c1c7)" style="fill: none; stroke: #808080; stroke-width: 0.2; stroke-linecap: square"/>
   </g>
   <g id="line2d_36">
    <path d="M 232.096222 193.081626 
L 231.999612 161.937439 
L 235.778075 158.726604 
L 235.827432 189.790411 
L 232.096222 193.081626 
" clip-path="url(#p326390c1c7)" style="fill: none; stroke: #808080; stroke-width: 0.2; stroke-linecap: square"/>
   </g>
   <g id="line2d_37">
    <path d="M 235.827432 189.790411 
L 235.778075 158.726604 
L 240.344315 154.846339 
L 240.337051 185.812579 
L 235.827432 189.790411 
" clip-path="url(#p326390c1c7)" style="fill: none; stroke: #808080; stroke-width: 0.2; stroke-linecap: square"/>
   </g>
   <g id="line2d_38">
    <path d="M 240.337051 185.812579 
L 240.344315 154.846339 
L 245.852388 150.165728 
L 245.777531 181.013655 
L 240.337051 185.812579 
" clip-path="url(#p326390c1c7)" style="fill: none; stroke: #808080; stroke-width: 0.2; stroke-linecap: square"/>
   </g>
   <g id="line2d_39">
    <path d="M 245.777531 181.013655 
L 245.852388 150.165728 
L 249.844695 146.773174 
L 249.721329 177.53492 
L 245.777531 181.013655 
" clip-path="url(#p326390c1c7)" style="fill: none; stroke: #808080; stroke-width: 0.2; stroke-linecap: square"/>
   </g>
   <g id="line2d_40">
    <path d="M 249.721329 177.53492 
L 249.844695 146.773174 
L 253.293062 143.842847 
L 253.128122 174.529866 
L 249.721329 177.53492 
" clip-path="url(#p326390c1c7)" style="fill: none; stroke: #808080; stroke-width: 0.2; stroke-linecap: square"/>
   </g>
   <g id="line2d_41">
    <path d="M 253.128122 174.529866 
L 253.293062 143.842847 
L 256.274696 141.309135 
L 256.074054 171.931326 
L 253.128122 174.529866 
" clip-path="url(#p326390c1c7)" style="fill: none; stroke: #808080; stroke-width: 0.2; stroke-linecap: square"/>
   </g>
   <g id="line2d_42">
    <path d="M 256.074054 171.931326 
L 256.274696 141.309135 
L 258.855089 139.116388 
L 258.623731 169.682314 
L 256.074054 171.931326 
" clip-path="url(#p326390c1c7)" style="fill: none; stroke: #808080; stroke-width: 0.2; stroke-linecap: square"/>
   </g>
   <g id="line2d_43">
    <path d="M 258.623731 169.682314 
L 258.855089 139.116388 
L 261.089974 137.217243 
L 260.832151 167.734317 
L 258.623731 169.682314 
" clip-path="url(#p326390c1c7)" style="fill: none; stroke: #808080; stroke-width: 0.2; stroke-linecap: square"/>
   </g>
   <g id="line2d_44">
    <path d="M 260.832151 167.734317 
L 261.089974 137.217243 
L 263.026918 135.571281 
L 262.746261 166.045924 
L 260.832151 167.734317 
" clip-path="url(#p326390c1c7)" style="fill: none; stroke: #808080; stroke-width: 0.2; stroke-linecap: square"/>
   </g>
   <g id="line2d_45">
    <path d="M 262.746261 166.045924 
L 263.026918 135.571281 
L 264.706623 134.143914 
L 264.406241 164.581693 
L 262.746261 166.045924 
" clip-path="url(#p326390c1c7)" style="fill: none; stroke: #808080; stroke-width: 0.2; stroke-linecap: square"/>
   </g>
   <g id="line2d_46">
    <path d="M 264.406241 164.581693 
L 264.706623 134.143914 
L 266.163987 132.905485 
L 265.84655 163.311229 
L 264.406241 164.581693 
" clip-path="url(#p326390c1c7)" style="fill: none; stroke: #808080; stroke-width: 0.2; stroke-linecap: square"/>
   </g>
   <g id="line2d_47">
    <path d="M 265.84655 163.311229 
L 266.163987 132.905485 
L 267.428999 131.830513 
L 267.096802 162.208411 
L 265.84655 163.311229 
" clip-path="url(#p326390c1c7)" style="fill: none; stroke: #808080; stroke-width: 0.2; stroke-linecap: square"/>
   </g>
   <g id="line2d_48">
    <path d="M 267.096802 162.208411 
L 267.428999 131.830513 
L 268.527465 130.897066 
L 268.182484 161.250756 
L 267.096802 162.208411 
" clip-path="url(#p326390c1c7)" style="fill: none; stroke: #808080; stroke-width: 0.2; stroke-linecap: square"/>
   </g>
   <g id="line2d_49">
    <path d="M 268.182484 161.250756 
L 268.527465 130.897066 
L 269.481627 130.086245 
L 269.125566 160.418884 
L 268.182484 161.250756 
" clip-path="url(#p326390c1c7)" style="fill: none; stroke: #808080; stroke-width: 0.2; stroke-linecap: square"/>
   </g>
  </g>
 </g>
 <defs>
  <clipPath id="p326390c1c7">
   <rect x="103.104" y="41.472" width="266.112" height="266.112"/>
  </clipPath>
 </defs>
</svg>
