<?xml version="1.0" encoding="utf-8" standalone="no"?>
<!DOCTYPE svg PUBLIC "-//W3C//DTD SVG 1.1//EN"
  "http://www.w3.org/Graphics/SVG/1.1/DTD/svg11.dtd">
<svg xmlns:xlink="http://www.w3.org/1999/xlink" width="460.8pt" height="345.6pt" viewBox="0 0 460.8 345.6" xmlns="http://www.w3.org/2000/svg" version="1.1">
 <metadata>
  <rdf:RDF xmlns:dc="http://purl.org/dc/elements/1.1/" xmlns:cc="http://creativecommons.org/ns#" xmlns:rdf="http://www.w3.org/1999/02/22-rdf-syntax-ns#">
   <cc:Work>
    <dc:type rdf:resource="http://purl.org/dc/dcmitype/StillImage"/>
    <dc:date>2024-02-01T22:05:03.405659</dc:date>
    <dc:format>image/svg+xml</dc:format>
    <dc:creator>
     <cc:Agent>
      <dc:title>Matplotlib v3.7.1, https://matplotlib.org/</dc:title>
     </cc:Agent>
    </dc:creator>
   </cc:Work>
  </rdf:RDF>
 </metadata>
 <defs>
  <style type="text/css">*{stroke-linejoin: round; stroke-linecap: butt}</style>
 </defs>
 <g id="figure_1">
  <g id="patch_1">
   <path d="M 0 345.6 
L 460.8 345.6 
L 460.8 0 
L 0 0 
z
" style="fill: #ffffff"/>
  </g>
  <g id="patch_2">
   <path d="M 103.104 307.584 
L 369.216 307.584 
L 369.216 41.472 
L 103.104 41.472 
z
" style="fill: #ffffff"/>
  </g>
  <g id="pane3d_1">
   <g id="patch_3">
    <path d="M 104.674919 188.120389 
L 178.615136 130.830879 
L 177.871594 100.04432 
L 102.911556 155.821057 
" style="fill: #f2f2f2; opacity: 0.5; stroke: #f2f2f2; stroke-linejoin: miter"/>
   </g>
  </g>
  <g id="pane3d_2">
   <g id="patch_4">
    <path d="M 178.615136 130.830879 
L 374.468696 185.807309 
L 376.222386 153.567149 
L 177.871594 100.04432 
" style="fill: #e6e6e6; opacity: 0.5; stroke: #e6e6e6; stroke-linejoin: miter"/>
   </g>
  </g>
  <g id="pane3d_3">
   <g id="patch_5">
    <path d="M 104.674919 188.120389 
L 310.245157 251.6758 
L 374.468696 185.807309 
L 178.615136 130.830879 
" style="fill: #ececec; opacity: 0.5; stroke: #ececec; stroke-linejoin: miter"/>
   </g>
  </g>
  <g id="axis3d_1">
   <g id="line2d_1">
    <path d="M 104.674919 188.120389 
L 310.245157 251.6758 
" style="fill: none; stroke: #000000; stroke-width: 0.8; stroke-linecap: square"/>
   </g>
   <g id="xtick_1">
    <g id="line2d_2">
     <path d="M 128.73757 194.866609 
L 126.858129 196.367414 
" style="fill: none; stroke: #000000; stroke-width: 0.8; stroke-linecap: square"/>
    </g>
    <g id="text_1">
     <!-- 0 -->
     <g transform="translate(118.525233 210.84981) scale(0.1 -0.1)">
      <defs>
       <path id="DejaVuSans-30" d="M 2034 4250 
Q 1547 4250 1301 3770 
Q 1056 3291 1056 2328 
Q 1056 1369 1301 889 
Q 1547 409 2034 409 
Q 2525 409 2770 889 
Q 3016 1369 3016 2328 
Q 3016 3291 2770 3770 
Q 2525 4250 2034 4250 
z
M 2034 4750 
Q 2819 4750 3233 4129 
Q 3647 3509 3647 2328 
Q 3647 1150 3233 529 
Q 2819 -91 2034 -91 
Q 1250 -91 836 529 
Q 422 1150 422 2328 
Q 422 3509 836 4129 
Q 1250 4750 2034 4750 
z
" transform="scale(0.015625)"/>
      </defs>
      <use xlink:href="#DejaVuSans-30"/>
     </g>
    </g>
   </g>
   <g id="xtick_2">
    <g id="line2d_3">
     <path d="M 156.327888 203.389694 
L 154.478613 204.920617 
" style="fill: none; stroke: #000000; stroke-width: 0.8; stroke-linecap: square"/>
    </g>
    <g id="text_2">
     <!-- 50 -->
     <g transform="translate(143.019822 219.505217) scale(0.1 -0.1)">
      <defs>
       <path id="DejaVuSans-35" d="M 691 4666 
L 3169 4666 
L 3169 4134 
L 1269 4134 
L 1269 2991 
Q 1406 3038 1543 3061 
Q 1681 3084 1819 3084 
Q 2600 3084 3056 2656 
Q 3513 2228 3513 1497 
Q 3513 744 3044 326 
Q 2575 -91 1722 -91 
Q 1428 -91 1123 -41 
Q 819 9 494 109 
L 494 744 
Q 775 591 1075 516 
Q 1375 441 1709 441 
Q 2250 441 2565 725 
Q 2881 1009 2881 1497 
Q 2881 1984 2565 2268 
Q 2250 2553 1709 2553 
Q 1456 2553 1204 2497 
Q 953 2441 691 2322 
L 691 4666 
z
" transform="scale(0.015625)"/>
      </defs>
      <use xlink:href="#DejaVuSans-35"/>
      <use xlink:href="#DejaVuSans-30" x="63.623047"/>
     </g>
    </g>
   </g>
   <g id="xtick_3">
    <g id="line2d_4">
     <path d="M 184.474194 212.084533 
L 182.656691 213.64649 
" style="fill: none; stroke: #000000; stroke-width: 0.8; stroke-linecap: square"/>
    </g>
    <g id="text_3">
     <!-- 100 -->
     <g transform="translate(168.075309 228.33604) scale(0.1 -0.1)">
      <defs>
       <path id="DejaVuSans-31" d="M 794 531 
L 1825 531 
L 1825 4091 
L 703 3866 
L 703 4441 
L 1819 4666 
L 2450 4666 
L 2450 531 
L 3481 531 
L 3481 0 
L 794 0 
L 794 531 
z
" transform="scale(0.015625)"/>
      </defs>
      <use xlink:href="#DejaVuSans-31"/>
      <use xlink:href="#DejaVuSans-30" x="63.623047"/>
      <use xlink:href="#DejaVuSans-30" x="127.246094"/>
     </g>
    </g>
   </g>
   <g id="xtick_4">
    <g id="line2d_5">
     <path d="M 213.193467 220.95637 
L 211.40942 222.550314 
" style="fill: none; stroke: #000000; stroke-width: 0.8; stroke-linecap: square"/>
    </g>
    <g id="text_4">
     <!-- 150 -->
     <g transform="translate(196.890171 237.347667) scale(0.1 -0.1)">
      <use xlink:href="#DejaVuSans-31"/>
      <use xlink:href="#DejaVuSans-35" x="63.623047"/>
      <use xlink:href="#DejaVuSans-30" x="127.246094"/>
     </g>
    </g>
   </g>
   <g id="xtick_5">
    <g id="line2d_6">
     <path d="M 242.503381 230.010665 
L 240.75456 231.637589 
" style="fill: none; stroke: #000000; stroke-width: 0.8; stroke-linecap: square"/>
    </g>
    <g id="text_5">
     <!-- 200 -->
     <g transform="translate(226.301096 246.545708) scale(0.1 -0.1)">
      <defs>
       <path id="DejaVuSans-32" d="M 1228 531 
L 3431 531 
L 3431 0 
L 469 0 
L 469 531 
Q 828 903 1448 1529 
Q 2069 2156 2228 2338 
Q 2531 2678 2651 2914 
Q 2772 3150 2772 3378 
Q 2772 3750 2511 3984 
Q 2250 4219 1831 4219 
Q 1534 4219 1204 4116 
Q 875 4013 500 3803 
L 500 4441 
Q 881 4594 1212 4672 
Q 1544 4750 1819 4750 
Q 2544 4750 2975 4387 
Q 3406 4025 3406 3419 
Q 3406 3131 3298 2873 
Q 3191 2616 2906 2266 
Q 2828 2175 2409 1742 
Q 1991 1309 1228 531 
z
" transform="scale(0.015625)"/>
      </defs>
      <use xlink:href="#DejaVuSans-32"/>
      <use xlink:href="#DejaVuSans-30" x="63.623047"/>
      <use xlink:href="#DejaVuSans-30" x="127.246094"/>
     </g>
    </g>
   </g>
   <g id="xtick_6">
    <g id="line2d_7">
     <path d="M 272.422346 239.253106 
L 270.710609 240.914044 
" style="fill: none; stroke: #000000; stroke-width: 0.8; stroke-linecap: square"/>
    </g>
    <g id="text_6">
     <!-- 250 -->
     <g transform="translate(256.326772 255.936008) scale(0.1 -0.1)">
      <use xlink:href="#DejaVuSans-32"/>
      <use xlink:href="#DejaVuSans-35" x="63.623047"/>
      <use xlink:href="#DejaVuSans-30" x="127.246094"/>
     </g>
    </g>
   </g>
   <g id="xtick_7">
    <g id="line2d_8">
     <path d="M 302.969545 248.689619 
L 301.296847 250.385649 
" style="fill: none; stroke: #000000; stroke-width: 0.8; stroke-linecap: square"/>
    </g>
    <g id="text_7">
     <!-- 300 -->
     <g transform="translate(286.986677 265.524658) scale(0.1 -0.1)">
      <defs>
       <path id="DejaVuSans-33" d="M 2597 2516 
Q 3050 2419 3304 2112 
Q 3559 1806 3559 1356 
Q 3559 666 3084 287 
Q 2609 -91 1734 -91 
Q 1441 -91 1130 -33 
Q 819 25 488 141 
L 488 750 
Q 750 597 1062 519 
Q 1375 441 1716 441 
Q 2309 441 2620 675 
Q 2931 909 2931 1356 
Q 2931 1769 2642 2001 
Q 2353 2234 1838 2234 
L 1294 2234 
L 1294 2753 
L 1863 2753 
Q 2328 2753 2575 2939 
Q 2822 3125 2822 3475 
Q 2822 3834 2567 4026 
Q 2313 4219 1838 4219 
Q 1578 4219 1281 4162 
Q 984 4106 628 3988 
L 628 4550 
Q 988 4650 1302 4700 
Q 1616 4750 1894 4750 
Q 2613 4750 3031 4423 
Q 3450 4097 3450 3541 
Q 3450 3153 3228 2886 
Q 3006 2619 2597 2516 
z
" transform="scale(0.015625)"/>
      </defs>
      <use xlink:href="#DejaVuSans-33"/>
      <use xlink:href="#DejaVuSans-30" x="63.623047"/>
      <use xlink:href="#DejaVuSans-30" x="127.246094"/>
     </g>
    </g>
   </g>
  </g>
  <g id="axis3d_2">
   <g id="line2d_9">
    <path d="M 374.468696 185.807309 
L 310.245157 251.6758 
" style="fill: none; stroke: #000000; stroke-width: 0.8; stroke-linecap: square"/>
   </g>
   <g id="xtick_8">
    <g id="line2d_10">
     <path d="M 322.297099 236.993485 
L 327.545868 238.583579 
" style="fill: none; stroke: #000000; stroke-width: 0.8; stroke-linecap: square"/>
    </g>
    <g id="text_8">
     <!-- 18 -->
     <g transform="translate(335.812545 253.400378) scale(0.1 -0.1)">
      <defs>
       <path id="DejaVuSans-38" d="M 2034 2216 
Q 1584 2216 1326 1975 
Q 1069 1734 1069 1313 
Q 1069 891 1326 650 
Q 1584 409 2034 409 
Q 2484 409 2743 651 
Q 3003 894 3003 1313 
Q 3003 1734 2745 1975 
Q 2488 2216 2034 2216 
z
M 1403 2484 
Q 997 2584 770 2862 
Q 544 3141 544 3541 
Q 544 4100 942 4425 
Q 1341 4750 2034 4750 
Q 2731 4750 3128 4425 
Q 3525 4100 3525 3541 
Q 3525 3141 3298 2862 
Q 3072 2584 2669 2484 
Q 3125 2378 3379 2068 
Q 3634 1759 3634 1313 
Q 3634 634 3220 271 
Q 2806 -91 2034 -91 
Q 1263 -91 848 271 
Q 434 634 434 1313 
Q 434 1759 690 2068 
Q 947 2378 1403 2484 
z
M 1172 3481 
Q 1172 3119 1398 2916 
Q 1625 2713 2034 2713 
Q 2441 2713 2670 2916 
Q 2900 3119 2900 3481 
Q 2900 3844 2670 4047 
Q 2441 4250 2034 4250 
Q 1625 4250 1398 4047 
Q 1172 3844 1172 3481 
z
" transform="scale(0.015625)"/>
      </defs>
      <use xlink:href="#DejaVuSans-31"/>
      <use xlink:href="#DejaVuSans-38" x="63.623047"/>
     </g>
    </g>
   </g>
   <g id="xtick_9">
    <g id="line2d_11">
     <path d="M 335.424101 223.565036 
L 340.61705 225.107813 
" style="fill: none; stroke: #000000; stroke-width: 0.8; stroke-linecap: square"/>
    </g>
    <g id="text_9">
     <!-- 20 -->
     <g transform="translate(348.712722 239.765049) scale(0.1 -0.1)">
      <use xlink:href="#DejaVuSans-32"/>
      <use xlink:href="#DejaVuSans-30" x="63.623047"/>
     </g>
    </g>
   </g>
   <g id="xtick_10">
    <g id="line2d_12">
     <path d="M 348.163675 210.532912 
L 353.301787 212.030454 
" style="fill: none; stroke: #000000; stroke-width: 0.8; stroke-linecap: square"/>
    </g>
    <g id="text_10">
     <!-- 22 -->
     <g transform="translate(361.230092 226.534344) scale(0.1 -0.1)">
      <use xlink:href="#DejaVuSans-32"/>
      <use xlink:href="#DejaVuSans-32" x="63.623047"/>
     </g>
    </g>
   </g>
   <g id="xtick_11">
    <g id="line2d_13">
     <path d="M 360.532722 197.879823 
L 365.616966 199.33409 
" style="fill: none; stroke: #000000; stroke-width: 0.8; stroke-linecap: square"/>
    </g>
    <g id="text_11">
     <!-- 24 -->
     <g transform="translate(373.381445 213.690513) scale(0.1 -0.1)">
      <defs>
       <path id="DejaVuSans-34" d="M 2419 4116 
L 825 1625 
L 2419 1625 
L 2419 4116 
z
M 2253 4666 
L 3047 4666 
L 3047 1625 
L 3713 1625 
L 3713 1100 
L 3047 1100 
L 3047 0 
L 2419 0 
L 2419 1100 
L 313 1100 
L 313 1709 
L 2253 4666 
z
" transform="scale(0.015625)"/>
      </defs>
      <use xlink:href="#DejaVuSans-32"/>
      <use xlink:href="#DejaVuSans-34" x="63.623047"/>
     </g>
    </g>
   </g>
  </g>
  <g id="axis3d_3">
   <g id="line2d_14">
    <path d="M 374.468696 185.807309 
L 376.222386 153.567149 
" style="fill: none; stroke: #000000; stroke-width: 0.8; stroke-linecap: square"/>
   </g>
   <g id="xtick_12">
    <g id="line2d_15">
     <path d="M 372.992319 181.641215 
L 378.030407 183.049135 
" style="fill: none; stroke: #000000; stroke-width: 0.8; stroke-linecap: square"/>
    </g>
    <g id="text_12">
     <!-- −0.4 -->
     <g transform="translate(384.881021 189.517633) scale(0.1 -0.1)">
      <defs>
       <path id="DejaVuSans-2212" d="M 678 2272 
L 4684 2272 
L 4684 1741 
L 678 1741 
L 678 2272 
z
" transform="scale(0.015625)"/>
       <path id="DejaVuSans-2e" d="M 684 794 
L 1344 794 
L 1344 0 
L 684 0 
L 684 794 
z
" transform="scale(0.015625)"/>
      </defs>
      <use xlink:href="#DejaVuSans-2212"/>
      <use xlink:href="#DejaVuSans-30" x="83.789062"/>
      <use xlink:href="#DejaVuSans-2e" x="147.412109"/>
      <use xlink:href="#DejaVuSans-34" x="179.199219"/>
     </g>
    </g>
   </g>
   <g id="xtick_13">
    <g id="line2d_16">
     <path d="M 373.32218 175.499481 
L 378.373315 176.900588 
" style="fill: none; stroke: #000000; stroke-width: 0.8; stroke-linecap: square"/>
    </g>
    <g id="text_13">
     <!-- −0.2 -->
     <g transform="translate(385.270503 183.374553) scale(0.1 -0.1)">
      <use xlink:href="#DejaVuSans-2212"/>
      <use xlink:href="#DejaVuSans-30" x="83.789062"/>
      <use xlink:href="#DejaVuSans-2e" x="147.412109"/>
      <use xlink:href="#DejaVuSans-32" x="179.199219"/>
     </g>
    </g>
   </g>
   <g id="xtick_14">
    <g id="line2d_17">
     <path d="M 373.653678 169.32726 
L 378.717928 170.721469 
" style="fill: none; stroke: #000000; stroke-width: 0.8; stroke-linecap: square"/>
    </g>
    <g id="text_14">
     <!-- 0.0 -->
     <g transform="translate(389.851763 177.20097) scale(0.1 -0.1)">
      <use xlink:href="#DejaVuSans-30"/>
      <use xlink:href="#DejaVuSans-2e" x="63.623047"/>
      <use xlink:href="#DejaVuSans-30" x="95.410156"/>
     </g>
    </g>
   </g>
   <g id="xtick_15">
    <g id="line2d_18">
     <path d="M 373.986826 163.124326 
L 379.064259 164.511549 
" style="fill: none; stroke: #000000; stroke-width: 0.8; stroke-linecap: square"/>
    </g>
    <g id="text_15">
     <!-- 0.2 -->
     <g transform="translate(390.245128 170.996655) scale(0.1 -0.1)">
      <use xlink:href="#DejaVuSans-30"/>
      <use xlink:href="#DejaVuSans-2e" x="63.623047"/>
      <use xlink:href="#DejaVuSans-32" x="95.410156"/>
     </g>
    </g>
   </g>
   <g id="xtick_16">
    <g id="line2d_19">
     <path d="M 374.321636 156.890448 
L 379.412321 158.270599 
" style="fill: none; stroke: #000000; stroke-width: 0.8; stroke-linecap: square"/>
    </g>
    <g id="text_16">
     <!-- 0.4 -->
     <g transform="translate(390.640456 164.76138) scale(0.1 -0.1)">
      <use xlink:href="#DejaVuSans-30"/>
      <use xlink:href="#DejaVuSans-2e" x="63.623047"/>
      <use xlink:href="#DejaVuSans-34" x="95.410156"/>
     </g>
    </g>
   </g>
  </g>
  <g id="axes_1">
   <g id="line2d_20">
    <path d="M 185.929522 136.945908 
L 185.295856 107.215478 
L 186.129282 107.441895 
L 186.753433 137.178367 
L 185.929522 136.945908 
" clip-path="url(#p2bacd0ee5b)" style="fill: none; stroke: #808080; stroke-width: 0.2; stroke-linecap: square"/>
   </g>
   <g id="line2d_21">
    <path d="M 186.753433 137.178367 
L 186.129282 107.441895 
L 186.929873 107.659392 
L 187.544879 137.401666 
L 186.753433 137.178367 
" clip-path="url(#p2bacd0ee5b)" style="fill: none; stroke: #808080; stroke-width: 0.2; stroke-linecap: square"/>
   </g>
   <g id="line2d_22">
    <path d="M 187.544879 137.401666 
L 186.929873 107.659392 
L 187.698906 107.868315 
L 188.305121 137.616161 
L 187.544879 137.401666 
" clip-path="url(#p2bacd0ee5b)" style="fill: none; stroke: #808080; stroke-width: 0.2; stroke-linecap: square"/>
   </g>
   <g id="line2d_23">
    <path d="M 188.305121 137.616161 
L 187.698906 107.868315 
L 188.437607 108.068998 
L 189.035374 137.822195 
L 188.305121 137.616161 
" clip-path="url(#p2bacd0ee5b)" style="fill: none; stroke: #808080; stroke-width: 0.2; stroke-linecap: square"/>
   </g>
   <g id="line2d_24">
    <path d="M 189.035374 137.822195 
L 188.437607 108.068998 
L 189.147158 108.261762 
L 189.736807 138.020097 
L 189.035374 137.822195 
" clip-path="url(#p2bacd0ee5b)" style="fill: none; stroke: #808080; stroke-width: 0.2; stroke-linecap: square"/>
   </g>
   <g id="line2d_25">
    <path d="M 189.736807 138.020097 
L 189.147158 108.261762 
L 189.828696 108.446915 
L 190.410542 138.210185 
L 189.736807 138.020097 
" clip-path="url(#p2bacd0ee5b)" style="fill: none; stroke: #808080; stroke-width: 0.2; stroke-linecap: square"/>
   </g>
   <g id="line2d_26">
    <path d="M 190.410542 138.210185 
L 189.828696 108.446915 
L 190.483313 108.624755 
L 191.057662 138.392764 
L 190.410542 138.210185 
" clip-path="url(#p2bacd0ee5b)" style="fill: none; stroke: #808080; stroke-width: 0.2; stroke-linecap: square"/>
   </g>
   <g id="line2d_27">
    <path d="M 191.057662 138.392764 
L 190.483313 108.624755 
L 191.112061 108.795568 
L 191.679206 138.568127 
L 191.057662 138.392764 
" clip-path="url(#p2bacd0ee5b)" style="fill: none; stroke: #808080; stroke-width: 0.2; stroke-linecap: square"/>
   </g>
   <g id="line2d_28">
    <path d="M 191.679206 138.568127 
L 191.112061 108.795568 
L 191.715952 108.959627 
L 192.276175 138.736556 
L 191.679206 138.568127 
" clip-path="url(#p2bacd0ee5b)" style="fill: none; stroke: #808080; stroke-width: 0.2; stroke-linecap: square"/>
   </g>
   <g id="line2d_29">
    <path d="M 192.276175 138.736556 
L 191.715952 108.959627 
L 192.295959 109.117197 
L 192.849529 138.898323 
L 192.276175 138.736556 
" clip-path="url(#p2bacd0ee5b)" style="fill: none; stroke: #808080; stroke-width: 0.2; stroke-linecap: square"/>
   </g>
   <g id="line2d_30">
    <path d="M 192.849529 138.898323 
L 192.295959 109.117197 
L 192.853015 109.268533 
L 193.400195 139.053688 
L 192.849529 138.898323 
" clip-path="url(#p2bacd0ee5b)" style="fill: none; stroke: #808080; stroke-width: 0.2; stroke-linecap: square"/>
   </g>
   <g id="line2d_31">
    <path d="M 193.400195 139.053688 
L 192.853015 109.268533 
L 193.388022 109.413878 
L 193.929062 139.202902 
L 193.400195 139.053688 
" clip-path="url(#p2bacd0ee5b)" style="fill: none; stroke: #808080; stroke-width: 0.2; stroke-linecap: square"/>
   </g>
   <g id="line2d_32">
    <path d="M 193.929062 139.202902 
L 193.388022 109.413878 
L 193.901845 109.553469 
L 194.436985 139.346208 
L 193.929062 139.202902 
" clip-path="url(#p2bacd0ee5b)" style="fill: none; stroke: #808080; stroke-width: 0.2; stroke-linecap: square"/>
   </g>
   <g id="line2d_33">
    <path d="M 194.436985 139.346208 
L 193.901845 109.553469 
L 194.395313 109.687529 
L 194.924785 139.483836 
L 194.436985 139.346208 
" clip-path="url(#p2bacd0ee5b)" style="fill: none; stroke: #808080; stroke-width: 0.2; stroke-linecap: square"/>
   </g>
   <g id="line2d_34">
    <path d="M 194.924785 139.483836 
L 194.395313 109.687529 
L 194.869228 109.816278 
L 195.393255 139.616011 
L 194.924785 139.483836 
" clip-path="url(#p2bacd0ee5b)" style="fill: none; stroke: #808080; stroke-width: 0.2; stroke-linecap: square"/>
   </g>
   <g id="line2d_35">
    <path d="M 195.393255 139.616011 
L 194.869228 109.816278 
L 195.324358 109.939923 
L 195.843154 139.742945 
L 195.393255 139.616011 
" clip-path="url(#p2bacd0ee5b)" style="fill: none; stroke: #808080; stroke-width: 0.2; stroke-linecap: square"/>
   </g>
   <g id="line2d_36">
    <path d="M 195.843154 139.742945 
L 195.324358 109.939923 
L 195.761441 110.058666 
L 196.275212 139.864847 
L 195.843154 139.742945 
" clip-path="url(#p2bacd0ee5b)" style="fill: none; stroke: #808080; stroke-width: 0.2; stroke-linecap: square"/>
   </g>
   <g id="line2d_37">
    <path d="M 196.275212 139.864847 
L 195.761441 110.058666 
L 196.181189 110.172699 
L 196.690133 139.981912 
L 196.275212 139.864847 
" clip-path="url(#p2bacd0ee5b)" style="fill: none; stroke: #808080; stroke-width: 0.2; stroke-linecap: square"/>
   </g>
   <g id="line2d_38">
    <path d="M 196.690133 139.981912 
L 196.181189 110.172699 
L 196.461501 110.248851 
L 196.96722 140.06009 
L 196.690133 139.981912 
" clip-path="url(#p2bacd0ee5b)" style="fill: none; stroke: #808080; stroke-width: 0.2; stroke-linecap: square"/>
   </g>
   <g id="line2d_39">
    <path d="M 196.96722 140.06009 
L 196.461501 110.248851 
L 196.744048 110.325611 
L 197.246516 140.138891 
L 196.96722 140.06009 
" clip-path="url(#p2bacd0ee5b)" style="fill: none; stroke: #808080; stroke-width: 0.2; stroke-linecap: square"/>
   </g>
   <g id="line2d_40">
    <path d="M 197.246516 140.138891 
L 196.744048 110.325611 
L 197.028849 110.402983 
L 197.52804 140.21832 
L 197.246516 140.138891 
" clip-path="url(#p2bacd0ee5b)" style="fill: none; stroke: #808080; stroke-width: 0.2; stroke-linecap: square"/>
   </g>
   <g id="line2d_41">
    <path d="M 197.52804 140.21832 
L 197.028849 110.402983 
L 197.315923 110.480972 
L 197.811809 140.298383 
L 197.52804 140.21832 
" clip-path="url(#p2bacd0ee5b)" style="fill: none; stroke: #808080; stroke-width: 0.2; stroke-linecap: square"/>
   </g>
   <g id="line2d_42">
    <path d="M 197.811809 140.298383 
L 197.315923 110.480972 
L 197.605287 110.559584 
L 198.097842 140.379084 
L 197.811809 140.298383 
" clip-path="url(#p2bacd0ee5b)" style="fill: none; stroke: #808080; stroke-width: 0.2; stroke-linecap: square"/>
   </g>
   <g id="line2d_43">
    <path d="M 198.097842 140.379084 
L 197.605287 110.559584 
L 197.89696 110.638823 
L 198.386157 140.460429 
L 198.097842 140.379084 
" clip-path="url(#p2bacd0ee5b)" style="fill: none; stroke: #808080; stroke-width: 0.2; stroke-linecap: square"/>
   </g>
   <g id="line2d_44">
    <path d="M 198.386157 140.460429 
L 197.89696 110.638823 
L 198.190962 110.718694 
L 198.676773 140.542424 
L 198.386157 140.460429 
" clip-path="url(#p2bacd0ee5b)" style="fill: none; stroke: #808080; stroke-width: 0.2; stroke-linecap: square"/>
   </g>
   <g id="line2d_45">
    <path d="M 198.676773 140.542424 
L 198.190962 110.718694 
L 198.487312 110.799204 
L 198.969708 140.625073 
L 198.676773 140.542424 
" clip-path="url(#p2bacd0ee5b)" style="fill: none; stroke: #808080; stroke-width: 0.2; stroke-linecap: square"/>
   </g>
   <g id="line2d_46">
    <path d="M 198.969708 140.625073 
L 198.487312 110.799204 
L 198.786028 110.880356 
L 199.264982 140.708382 
L 198.969708 140.625073 
" clip-path="url(#p2bacd0ee5b)" style="fill: none; stroke: #808080; stroke-width: 0.2; stroke-linecap: square"/>
   </g>
   <g id="line2d_47">
    <path d="M 199.264982 140.708382 
L 198.786028 110.880356 
L 199.08713 110.962156 
L 199.562615 140.792356 
L 199.264982 140.708382 
" clip-path="url(#p2bacd0ee5b)" style="fill: none; stroke: #808080; stroke-width: 0.2; stroke-linecap: square"/>
   </g>
   <g id="line2d_48">
    <path d="M 199.562615 140.792356 
L 199.08713 110.962156 
L 199.390638 111.04461 
L 199.862624 140.877001 
L 199.562615 140.792356 
" clip-path="url(#p2bacd0ee5b)" style="fill: none; stroke: #808080; stroke-width: 0.2; stroke-linecap: square"/>
   </g>
   <g id="line2d_49">
    <path d="M 199.862624 140.877001 
L 199.390638 111.04461 
L 199.696572 111.127723 
L 200.16503 140.962322 
L 199.862624 140.877001 
" clip-path="url(#p2bacd0ee5b)" style="fill: none; stroke: #808080; stroke-width: 0.2; stroke-linecap: square"/>
   </g>
   <g id="line2d_50">
    <path d="M 200.16503 140.962322 
L 199.696572 111.127723 
L 200.00495 111.211501 
L 200.469853 141.048325 
L 200.16503 140.962322 
" clip-path="url(#p2bacd0ee5b)" style="fill: none; stroke: #808080; stroke-width: 0.2; stroke-linecap: square"/>
   </g>
   <g id="line2d_51">
    <path d="M 200.469853 141.048325 
L 200.00495 111.211501 
L 200.315794 111.295948 
L 200.777111 141.135015 
L 200.469853 141.048325 
" clip-path="url(#p2bacd0ee5b)" style="fill: none; stroke: #808080; stroke-width: 0.2; stroke-linecap: square"/>
   </g>
   <g id="line2d_52">
    <path d="M 200.777111 141.135015 
L 200.315794 111.295948 
L 200.629124 111.38107 
L 201.086826 141.222398 
L 200.777111 141.135015 
" clip-path="url(#p2bacd0ee5b)" style="fill: none; stroke: #808080; stroke-width: 0.2; stroke-linecap: square"/>
   </g>
   <g id="line2d_53">
    <path d="M 201.086826 141.222398 
L 200.629124 111.38107 
L 200.94496 111.466873 
L 201.399017 141.31048 
L 201.086826 141.222398 
" clip-path="url(#p2bacd0ee5b)" style="fill: none; stroke: #808080; stroke-width: 0.2; stroke-linecap: square"/>
   </g>
   <g id="line2d_54">
    <path d="M 201.399017 141.31048 
L 200.94496 111.466873 
L 201.263322 111.553363 
L 201.713705 141.399266 
L 201.399017 141.31048 
" clip-path="url(#p2bacd0ee5b)" style="fill: none; stroke: #808080; stroke-width: 0.2; stroke-linecap: square"/>
   </g>
   <g id="line2d_55">
    <path d="M 201.713705 141.399266 
L 201.263322 111.553363 
L 201.584232 111.640545 
L 202.03091 141.488762 
L 201.713705 141.399266 
" clip-path="url(#p2bacd0ee5b)" style="fill: none; stroke: #808080; stroke-width: 0.2; stroke-linecap: square"/>
   </g>
   <g id="line2d_56">
    <path d="M 202.03091 141.488762 
L 201.584232 111.640545 
L 201.907711 111.728424 
L 202.350653 141.578975 
L 202.03091 141.488762 
" clip-path="url(#p2bacd0ee5b)" style="fill: none; stroke: #808080; stroke-width: 0.2; stroke-linecap: square"/>
   </g>
   <g id="line2d_57">
    <path d="M 202.350653 141.578975 
L 201.907711 111.728424 
L 202.233779 111.817007 
L 202.672955 141.669909 
L 202.350653 141.578975 
" clip-path="url(#p2bacd0ee5b)" style="fill: none; stroke: #808080; stroke-width: 0.2; stroke-linecap: square"/>
   </g>
   <g id="line2d_58">
    <path d="M 202.672955 141.669909 
L 202.233779 111.817007 
L 202.562457 111.906299 
L 202.997836 141.761571 
L 202.672955 141.669909 
" clip-path="url(#p2bacd0ee5b)" style="fill: none; stroke: #808080; stroke-width: 0.2; stroke-linecap: square"/>
   </g>
   <g id="line2d_59">
    <path d="M 202.997836 141.761571 
L 202.562457 111.906299 
L 202.893769 111.996307 
L 203.325319 141.853967 
L 202.997836 141.761571 
" clip-path="url(#p2bacd0ee5b)" style="fill: none; stroke: #808080; stroke-width: 0.2; stroke-linecap: square"/>
   </g>
   <g id="line2d_60">
    <path d="M 203.325319 141.853967 
L 202.893769 111.996307 
L 203.227734 112.087035 
L 203.655424 141.947103 
L 203.325319 141.853967 
" clip-path="url(#p2bacd0ee5b)" style="fill: none; stroke: #808080; stroke-width: 0.2; stroke-linecap: square"/>
   </g>
   <g id="line2d_61">
    <path d="M 203.655424 141.947103 
L 203.227734 112.087035 
L 203.564375 112.17849 
L 203.988174 142.040985 
L 203.655424 141.947103 
" clip-path="url(#p2bacd0ee5b)" style="fill: none; stroke: #808080; stroke-width: 0.2; stroke-linecap: square"/>
   </g>
   <g id="line2d_62">
    <path d="M 203.988174 142.040985 
L 203.564375 112.17849 
L 203.903714 112.270679 
L 204.323589 142.13562 
L 203.988174 142.040985 
" clip-path="url(#p2bacd0ee5b)" style="fill: none; stroke: #808080; stroke-width: 0.2; stroke-linecap: square"/>
   </g>
   <g id="line2d_63">
    <path d="M 204.323589 142.13562 
L 203.903714 112.270679 
L 204.245774 112.363606 
L 204.661692 142.231012 
L 204.323589 142.13562 
" clip-path="url(#p2bacd0ee5b)" style="fill: none; stroke: #808080; stroke-width: 0.2; stroke-linecap: square"/>
   </g>
   <g id="line2d_64">
    <path d="M 204.661692 142.231012 
L 204.245774 112.363606 
L 204.590576 112.457279 
L 205.002505 142.32717 
L 204.661692 142.231012 
" clip-path="url(#p2bacd0ee5b)" style="fill: none; stroke: #808080; stroke-width: 0.2; stroke-linecap: square"/>
   </g>
   <g id="line2d_65">
    <path d="M 205.002505 142.32717 
L 204.590576 112.457279 
L 204.938144 112.551703 
L 205.346051 142.424098 
L 205.002505 142.32717 
" clip-path="url(#p2bacd0ee5b)" style="fill: none; stroke: #808080; stroke-width: 0.2; stroke-linecap: square"/>
   </g>
   <g id="line2d_66">
    <path d="M 205.346051 142.424098 
L 204.938144 112.551703 
L 205.2885 112.646884 
L 205.692351 142.521803 
L 205.346051 142.424098 
" clip-path="url(#p2bacd0ee5b)" style="fill: none; stroke: #808080; stroke-width: 0.2; stroke-linecap: square"/>
   </g>
   <g id="line2d_67">
    <path d="M 205.692351 142.521803 
L 205.2885 112.646884 
L 205.641667 112.742829 
L 206.04143 142.620292 
L 205.692351 142.521803 
" clip-path="url(#p2bacd0ee5b)" style="fill: none; stroke: #808080; stroke-width: 0.2; stroke-linecap: square"/>
   </g>
   <g id="line2d_68">
    <path d="M 206.04143 142.620292 
L 205.641667 112.742829 
L 205.997669 112.839544 
L 206.393309 142.719572 
L 206.04143 142.620292 
" clip-path="url(#p2bacd0ee5b)" style="fill: none; stroke: #808080; stroke-width: 0.2; stroke-linecap: square"/>
   </g>
   <g id="line2d_69">
    <path d="M 206.393309 142.719572 
L 205.997669 112.839544 
L 206.356529 112.937036 
L 206.748012 142.819648 
L 206.393309 142.719572 
" clip-path="url(#p2bacd0ee5b)" style="fill: none; stroke: #808080; stroke-width: 0.2; stroke-linecap: square"/>
   </g>
   <g id="line2d_70">
    <path d="M 206.748012 142.819648 
L 206.356529 112.937036 
L 206.718271 113.03531 
L 207.105562 142.920527 
L 206.748012 142.819648 
" clip-path="url(#p2bacd0ee5b)" style="fill: none; stroke: #808080; stroke-width: 0.2; stroke-linecap: square"/>
   </g>
   <g id="line2d_71">
    <path d="M 207.105562 142.920527 
L 206.718271 113.03531 
L 207.082918 113.134374 
L 207.465983 143.022217 
L 207.105562 142.920527 
" clip-path="url(#p2bacd0ee5b)" style="fill: none; stroke: #808080; stroke-width: 0.2; stroke-linecap: square"/>
   </g>
   <g id="line2d_72">
    <path d="M 207.465983 143.022217 
L 207.082918 113.134374 
L 207.450495 113.234233 
L 207.829299 143.124723 
L 207.465983 143.022217 
" clip-path="url(#p2bacd0ee5b)" style="fill: none; stroke: #808080; stroke-width: 0.2; stroke-linecap: square"/>
   </g>
   <g id="line2d_73">
    <path d="M 207.829299 143.124723 
L 207.450495 113.234233 
L 207.821025 113.334896 
L 208.195533 143.228052 
L 207.829299 143.124723 
" clip-path="url(#p2bacd0ee5b)" style="fill: none; stroke: #808080; stroke-width: 0.2; stroke-linecap: square"/>
   </g>
   <g id="line2d_74">
    <path d="M 208.195533 143.228052 
L 207.821025 113.334896 
L 208.194535 113.436367 
L 208.56471 143.332212 
L 208.195533 143.228052 
" clip-path="url(#p2bacd0ee5b)" style="fill: none; stroke: #808080; stroke-width: 0.2; stroke-linecap: square"/>
   </g>
   <g id="line2d_75">
    <path d="M 208.56471 143.332212 
L 208.194535 113.436367 
L 208.571047 113.538654 
L 208.936854 143.437209 
L 208.56471 143.332212 
" clip-path="url(#p2bacd0ee5b)" style="fill: none; stroke: #808080; stroke-width: 0.2; stroke-linecap: square"/>
   </g>
   <g id="line2d_76">
    <path d="M 208.936854 143.437209 
L 208.571047 113.538654 
L 208.950587 113.641764 
L 209.31199 143.54305 
L 208.936854 143.437209 
" clip-path="url(#p2bacd0ee5b)" style="fill: none; stroke: #808080; stroke-width: 0.2; stroke-linecap: square"/>
   </g>
   <g id="line2d_77">
    <path d="M 209.31199 143.54305 
L 208.950587 113.641764 
L 209.333181 113.745703 
L 209.690143 143.649742 
L 209.31199 143.54305 
" clip-path="url(#p2bacd0ee5b)" style="fill: none; stroke: #808080; stroke-width: 0.2; stroke-linecap: square"/>
   </g>
   <g id="line2d_78">
    <path d="M 209.690143 143.649742 
L 209.333181 113.745703 
L 209.718854 113.850479 
L 210.071338 143.757293 
L 209.690143 143.649742 
" clip-path="url(#p2bacd0ee5b)" style="fill: none; stroke: #808080; stroke-width: 0.2; stroke-linecap: square"/>
   </g>
   <g id="line2d_79">
    <path d="M 210.071338 143.757293 
L 209.718854 113.850479 
L 210.10763 113.956098 
L 210.455599 143.865708 
L 210.071338 143.757293 
" clip-path="url(#p2bacd0ee5b)" style="fill: none; stroke: #808080; stroke-width: 0.2; stroke-linecap: square"/>
   </g>
   <g id="line2d_80">
    <path d="M 210.455599 143.865708 
L 210.10763 113.956098 
L 210.499537 114.062568 
L 210.842953 143.974996 
L 210.455599 143.865708 
" clip-path="url(#p2bacd0ee5b)" style="fill: none; stroke: #808080; stroke-width: 0.2; stroke-linecap: square"/>
   </g>
   <g id="line2d_81">
    <path d="M 210.842953 143.974996 
L 210.499537 114.062568 
L 210.8946 114.169894 
L 211.233425 144.085164 
L 210.842953 143.974996 
" clip-path="url(#p2bacd0ee5b)" style="fill: none; stroke: #808080; stroke-width: 0.2; stroke-linecap: square"/>
   </g>
   <g id="line2d_82">
    <path d="M 211.233425 144.085164 
L 210.8946 114.169894 
L 211.292845 114.278086 
L 211.627041 144.19622 
L 211.233425 144.085164 
" clip-path="url(#p2bacd0ee5b)" style="fill: none; stroke: #808080; stroke-width: 0.2; stroke-linecap: square"/>
   </g>
   <g id="line2d_83">
    <path d="M 211.627041 144.19622 
L 211.292845 114.278086 
L 211.694299 114.387149 
L 212.023827 144.308169 
L 211.627041 144.19622 
" clip-path="url(#p2bacd0ee5b)" style="fill: none; stroke: #808080; stroke-width: 0.2; stroke-linecap: square"/>
   </g>
   <g id="line2d_84">
    <path d="M 212.023827 144.308169 
L 211.694299 114.387149 
L 212.098989 114.497091 
L 212.423811 144.421021 
L 212.023827 144.308169 
" clip-path="url(#p2bacd0ee5b)" style="fill: none; stroke: #808080; stroke-width: 0.2; stroke-linecap: square"/>
   </g>
   <g id="line2d_85">
    <path d="M 212.423811 144.421021 
L 212.098989 114.497091 
L 212.506942 114.60792 
L 212.827017 144.534782 
L 212.423811 144.421021 
" clip-path="url(#p2bacd0ee5b)" style="fill: none; stroke: #808080; stroke-width: 0.2; stroke-linecap: square"/>
   </g>
   <g id="line2d_86">
    <path d="M 212.827017 144.534782 
L 212.506942 114.60792 
L 212.918185 114.719642 
L 213.233474 144.64946 
L 212.827017 144.534782 
" clip-path="url(#p2bacd0ee5b)" style="fill: none; stroke: #808080; stroke-width: 0.2; stroke-linecap: square"/>
   </g>
   <g id="line2d_87">
    <path d="M 213.233474 144.64946 
L 212.918185 114.719642 
L 213.332744 114.832266 
L 213.643209 144.765062 
L 213.233474 144.64946 
" clip-path="url(#p2bacd0ee5b)" style="fill: none; stroke: #808080; stroke-width: 0.2; stroke-linecap: square"/>
   </g>
   <g id="line2d_88">
    <path d="M 213.643209 144.765062 
L 213.332744 114.832266 
L 213.75065 114.945798 
L 214.056248 144.881597 
L 213.643209 144.765062 
" clip-path="url(#p2bacd0ee5b)" style="fill: none; stroke: #808080; stroke-width: 0.2; stroke-linecap: square"/>
   </g>
   <g id="line2d_89">
    <path d="M 214.056248 144.881597 
L 213.75065 114.945798 
L 214.171928 115.060247 
L 214.472619 144.999073 
L 214.056248 144.881597 
" clip-path="url(#p2bacd0ee5b)" style="fill: none; stroke: #808080; stroke-width: 0.2; stroke-linecap: square"/>
   </g>
   <g id="line2d_90">
    <path d="M 214.472619 144.999073 
L 214.171928 115.060247 
L 214.596607 115.175619 
L 214.892351 145.117496 
L 214.472619 144.999073 
" clip-path="url(#p2bacd0ee5b)" style="fill: none; stroke: #808080; stroke-width: 0.2; stroke-linecap: square"/>
   </g>
   <g id="line2d_91">
    <path d="M 214.892351 145.117496 
L 214.596607 115.175619 
L 215.024716 115.291924 
L 215.315471 145.236875 
L 214.892351 145.117496 
" clip-path="url(#p2bacd0ee5b)" style="fill: none; stroke: #808080; stroke-width: 0.2; stroke-linecap: square"/>
   </g>
   <g id="line2d_92">
    <path d="M 215.315471 145.236875 
L 215.024716 115.291924 
L 215.456284 115.409168 
L 215.742008 145.357218 
L 215.315471 145.236875 
" clip-path="url(#p2bacd0ee5b)" style="fill: none; stroke: #808080; stroke-width: 0.2; stroke-linecap: square"/>
   </g>
   <g id="line2d_93">
    <path d="M 215.742008 145.357218 
L 215.456284 115.409168 
L 215.891339 115.52736 
L 216.17199 145.478534 
L 215.742008 145.357218 
" clip-path="url(#p2bacd0ee5b)" style="fill: none; stroke: #808080; stroke-width: 0.2; stroke-linecap: square"/>
   </g>
   <g id="line2d_94">
    <path d="M 216.17199 145.478534 
L 215.891339 115.52736 
L 216.329911 115.646507 
L 216.605446 145.600829 
L 216.17199 145.478534 
" clip-path="url(#p2bacd0ee5b)" style="fill: none; stroke: #808080; stroke-width: 0.2; stroke-linecap: square"/>
   </g>
   <g id="line2d_95">
    <path d="M 216.605446 145.600829 
L 216.329911 115.646507 
L 216.772029 115.766617 
L 217.042405 145.724113 
L 216.605446 145.600829 
" clip-path="url(#p2bacd0ee5b)" style="fill: none; stroke: #808080; stroke-width: 0.2; stroke-linecap: square"/>
   </g>
   <g id="line2d_96">
    <path d="M 217.042405 145.724113 
L 216.772029 115.766617 
L 217.217723 115.887699 
L 217.482897 145.848394 
L 217.042405 145.724113 
" clip-path="url(#p2bacd0ee5b)" style="fill: none; stroke: #808080; stroke-width: 0.2; stroke-linecap: square"/>
   </g>
   <g id="line2d_97">
    <path d="M 217.482897 145.848394 
L 217.217723 115.887699 
L 217.667023 116.00976 
L 217.926952 145.97368 
L 217.482897 145.848394 
" clip-path="url(#p2bacd0ee5b)" style="fill: none; stroke: #808080; stroke-width: 0.2; stroke-linecap: square"/>
   </g>
   <g id="line2d_98">
    <path d="M 217.926952 145.97368 
L 217.667023 116.00976 
L 218.11996 116.13281 
L 218.374598 146.099979 
L 217.926952 145.97368 
" clip-path="url(#p2bacd0ee5b)" style="fill: none; stroke: #808080; stroke-width: 0.2; stroke-linecap: square"/>
   </g>
   <g id="line2d_99">
    <path d="M 218.374598 146.099979 
L 218.11996 116.13281 
L 218.576563 116.256855 
L 218.825867 146.2273 
L 218.374598 146.099979 
" clip-path="url(#p2bacd0ee5b)" style="fill: none; stroke: #808080; stroke-width: 0.2; stroke-linecap: square"/>
   </g>
   <g id="line2d_100">
    <path d="M 218.825867 146.2273 
L 218.576563 116.256855 
L 219.036864 116.381905 
L 219.280789 146.355652 
L 218.825867 146.2273 
" clip-path="url(#p2bacd0ee5b)" style="fill: none; stroke: #808080; stroke-width: 0.2; stroke-linecap: square"/>
   </g>
   <g id="line2d_101">
    <path d="M 219.280789 146.355652 
L 219.036864 116.381905 
L 219.500894 116.507968 
L 219.739394 146.485043 
L 219.280789 146.355652 
" clip-path="url(#p2bacd0ee5b)" style="fill: none; stroke: #808080; stroke-width: 0.2; stroke-linecap: square"/>
   </g>
   <g id="line2d_102">
    <path d="M 219.739394 146.485043 
L 219.500894 116.507968 
L 219.968684 116.635053 
L 220.201714 146.615482 
L 219.739394 146.485043 
" clip-path="url(#p2bacd0ee5b)" style="fill: none; stroke: #808080; stroke-width: 0.2; stroke-linecap: square"/>
   </g>
   <g id="line2d_103">
    <path d="M 220.201714 146.615482 
L 219.968684 116.635053 
L 220.440266 116.763168 
L 220.667779 146.746978 
L 220.201714 146.615482 
" clip-path="url(#p2bacd0ee5b)" style="fill: none; stroke: #808080; stroke-width: 0.2; stroke-linecap: square"/>
   </g>
   <g id="line2d_104">
    <path d="M 220.667779 146.746978 
L 220.440266 116.763168 
L 220.915672 116.892321 
L 221.137622 146.87954 
L 220.667779 146.746978 
" clip-path="url(#p2bacd0ee5b)" style="fill: none; stroke: #808080; stroke-width: 0.2; stroke-linecap: square"/>
   </g>
   <g id="line2d_105">
    <path d="M 221.137622 146.87954 
L 220.915672 116.892321 
L 221.394935 117.022523 
L 221.611274 147.013176 
L 221.137622 146.87954 
" clip-path="url(#p2bacd0ee5b)" style="fill: none; stroke: #808080; stroke-width: 0.2; stroke-linecap: square"/>
   </g>
   <g id="line2d_106">
    <path d="M 221.611274 147.013176 
L 221.394935 117.022523 
L 221.878086 117.15378 
L 222.088768 147.147897 
L 221.611274 147.013176 
" clip-path="url(#p2bacd0ee5b)" style="fill: none; stroke: #808080; stroke-width: 0.2; stroke-linecap: square"/>
   </g>
   <g id="line2d_107">
    <path d="M 222.088768 147.147897 
L 221.878086 117.15378 
L 222.365159 117.286104 
L 222.570135 147.28371 
L 222.088768 147.147897 
" clip-path="url(#p2bacd0ee5b)" style="fill: none; stroke: #808080; stroke-width: 0.2; stroke-linecap: square"/>
   </g>
   <g id="line2d_108">
    <path d="M 222.570135 147.28371 
L 222.365159 117.286104 
L 222.856186 117.419501 
L 223.055409 147.420625 
L 222.570135 147.28371 
" clip-path="url(#p2bacd0ee5b)" style="fill: none; stroke: #808080; stroke-width: 0.2; stroke-linecap: square"/>
   </g>
   <g id="line2d_109">
    <path d="M 223.055409 147.420625 
L 222.856186 117.419501 
L 223.351202 117.553982 
L 223.544622 147.558652 
L 223.055409 147.420625 
" clip-path="url(#p2bacd0ee5b)" style="fill: none; stroke: #808080; stroke-width: 0.2; stroke-linecap: square"/>
   </g>
   <g id="line2d_110">
    <path d="M 223.544622 147.558652 
L 223.351202 117.553982 
L 223.850239 117.689556 
L 224.037809 147.6978 
L 223.544622 147.558652 
" clip-path="url(#p2bacd0ee5b)" style="fill: none; stroke: #808080; stroke-width: 0.2; stroke-linecap: square"/>
   </g>
   <g id="line2d_111">
    <path d="M 224.037809 147.6978 
L 223.850239 117.689556 
L 224.353333 117.826231 
L 224.535001 147.838078 
L 224.037809 147.6978 
" clip-path="url(#p2bacd0ee5b)" style="fill: none; stroke: #808080; stroke-width: 0.2; stroke-linecap: square"/>
   </g>
   <g id="line2d_112">
    <path d="M 224.535001 147.838078 
L 224.353333 117.826231 
L 224.860518 117.964018 
L 225.036234 147.979496 
L 224.535001 147.838078 
" clip-path="url(#p2bacd0ee5b)" style="fill: none; stroke: #808080; stroke-width: 0.2; stroke-linecap: square"/>
   </g>
   <g id="line2d_113">
    <path d="M 225.036234 147.979496 
L 224.860518 117.964018 
L 225.371827 118.102926 
L 225.541542 148.122064 
L 225.036234 147.979496 
" clip-path="url(#p2bacd0ee5b)" style="fill: none; stroke: #808080; stroke-width: 0.2; stroke-linecap: square"/>
   </g>
   <g id="line2d_114">
    <path d="M 225.541542 148.122064 
L 225.371827 118.102926 
L 225.887297 118.242964 
L 226.050959 148.265791 
L 225.541542 148.122064 
" clip-path="url(#p2bacd0ee5b)" style="fill: none; stroke: #808080; stroke-width: 0.2; stroke-linecap: square"/>
   </g>
   <g id="line2d_115">
    <path d="M 226.050959 148.265791 
L 225.887297 118.242964 
L 226.406962 118.384141 
L 226.56452 148.410688 
L 226.050959 148.265791 
" clip-path="url(#p2bacd0ee5b)" style="fill: none; stroke: #808080; stroke-width: 0.2; stroke-linecap: square"/>
   </g>
   <g id="line2d_116">
    <path d="M 226.56452 148.410688 
L 226.406962 118.384141 
L 226.930858 118.526468 
L 227.08226 148.556763 
L 226.56452 148.410688 
" clip-path="url(#p2bacd0ee5b)" style="fill: none; stroke: #808080; stroke-width: 0.2; stroke-linecap: square"/>
   </g>
   <g id="line2d_117">
    <path d="M 227.08226 148.556763 
L 226.930858 118.526468 
L 227.459021 118.669954 
L 227.604215 148.704028 
L 227.08226 148.556763 
" clip-path="url(#p2bacd0ee5b)" style="fill: none; stroke: #808080; stroke-width: 0.2; stroke-linecap: square"/>
   </g>
   <g id="line2d_118">
    <path d="M 227.604215 148.704028 
L 227.459021 118.669954 
L 227.991488 118.81461 
L 228.13042 148.852492 
L 227.604215 148.704028 
" clip-path="url(#p2bacd0ee5b)" style="fill: none; stroke: #808080; stroke-width: 0.2; stroke-linecap: square"/>
   </g>
   <g id="line2d_119">
    <path d="M 228.13042 148.852492 
L 227.991488 118.81461 
L 228.528295 118.960444 
L 228.660912 149.002165 
L 228.13042 148.852492 
" clip-path="url(#p2bacd0ee5b)" style="fill: none; stroke: #808080; stroke-width: 0.2; stroke-linecap: square"/>
   </g>
   <g id="line2d_120">
    <path d="M 228.660912 149.002165 
L 228.528295 118.960444 
L 229.069479 119.107468 
L 229.195727 149.153058 
L 228.660912 149.002165 
" clip-path="url(#p2bacd0ee5b)" style="fill: none; stroke: #808080; stroke-width: 0.2; stroke-linecap: square"/>
   </g>
   <g id="line2d_121">
    <path d="M 229.195727 149.153058 
L 229.069479 119.107468 
L 229.615077 119.255691 
L 229.734903 149.305181 
L 229.195727 149.153058 
" clip-path="url(#p2bacd0ee5b)" style="fill: none; stroke: #808080; stroke-width: 0.2; stroke-linecap: square"/>
   </g>
   <g id="line2d_122">
    <path d="M 229.734903 149.305181 
L 229.615077 119.255691 
L 230.165127 119.405123 
L 230.278475 149.458545 
L 229.734903 149.305181 
" clip-path="url(#p2bacd0ee5b)" style="fill: none; stroke: #808080; stroke-width: 0.2; stroke-linecap: square"/>
   </g>
   <g id="line2d_123">
    <path d="M 230.278475 149.458545 
L 230.165127 119.405123 
L 230.719668 119.555775 
L 230.826482 149.61316 
L 230.278475 149.458545 
" clip-path="url(#p2bacd0ee5b)" style="fill: none; stroke: #808080; stroke-width: 0.2; stroke-linecap: square"/>
   </g>
   <g id="line2d_124">
    <path d="M 230.826482 149.61316 
L 230.719668 119.555775 
L 231.278737 119.707657 
L 231.378962 149.769037 
L 230.826482 149.61316 
" clip-path="url(#p2bacd0ee5b)" style="fill: none; stroke: #808080; stroke-width: 0.2; stroke-linecap: square"/>
   </g>
   <g id="line2d_125">
    <path d="M 231.378962 149.769037 
L 231.278737 119.707657 
L 231.842373 119.860781 
L 231.935953 149.926187 
L 231.378962 149.769037 
" clip-path="url(#p2bacd0ee5b)" style="fill: none; stroke: #808080; stroke-width: 0.2; stroke-linecap: square"/>
   </g>
   <g id="line2d_126">
    <path d="M 231.935953 149.926187 
L 231.842373 119.860781 
L 232.410615 120.015155 
L 232.497493 150.08462 
L 231.935953 149.926187 
" clip-path="url(#p2bacd0ee5b)" style="fill: none; stroke: #808080; stroke-width: 0.2; stroke-linecap: square"/>
   </g>
   <g id="line2d_127">
    <path d="M 232.497493 150.08462 
L 232.410615 120.015155 
L 232.983503 120.170792 
L 233.063621 150.244347 
L 232.497493 150.08462 
" clip-path="url(#p2bacd0ee5b)" style="fill: none; stroke: #808080; stroke-width: 0.2; stroke-linecap: square"/>
   </g>
   <g id="line2d_128">
    <path d="M 233.063621 150.244347 
L 232.983503 120.170792 
L 233.561077 120.327701 
L 233.634376 150.405381 
L 233.063621 150.244347 
" clip-path="url(#p2bacd0ee5b)" style="fill: none; stroke: #808080; stroke-width: 0.2; stroke-linecap: square"/>
   </g>
   <g id="line2d_129">
    <path d="M 233.634376 150.405381 
L 233.561077 120.327701 
L 234.143376 120.485895 
L 234.209799 150.567731 
L 233.634376 150.405381 
" clip-path="url(#p2bacd0ee5b)" style="fill: none; stroke: #808080; stroke-width: 0.2; stroke-linecap: square"/>
   </g>
   <g id="line2d_130">
    <path d="M 234.209799 150.567731 
L 234.143376 120.485895 
L 234.730441 120.645383 
L 234.789929 150.731409 
L 234.209799 150.567731 
" clip-path="url(#p2bacd0ee5b)" style="fill: none; stroke: #808080; stroke-width: 0.2; stroke-linecap: square"/>
   </g>
   <g id="line2d_131">
    <path d="M 234.789929 150.731409 
L 234.730441 120.645383 
L 235.322314 120.806177 
L 235.374807 150.896427 
L 234.789929 150.731409 
" clip-path="url(#p2bacd0ee5b)" style="fill: none; stroke: #808080; stroke-width: 0.2; stroke-linecap: square"/>
   </g>
   <g id="line2d_132">
    <path d="M 235.374807 150.896427 
L 235.322314 120.806177 
L 235.919035 120.968288 
L 235.964473 151.062795 
L 235.374807 150.896427 
" clip-path="url(#p2bacd0ee5b)" style="fill: none; stroke: #808080; stroke-width: 0.2; stroke-linecap: square"/>
   </g>
   <g id="line2d_133">
    <path d="M 235.964473 151.062795 
L 235.919035 120.968288 
L 236.520647 121.131728 
L 236.558968 151.230527 
L 235.964473 151.062795 
" clip-path="url(#p2bacd0ee5b)" style="fill: none; stroke: #808080; stroke-width: 0.2; stroke-linecap: square"/>
   </g>
   <g id="line2d_134">
    <path d="M 236.558968 151.230527 
L 236.520647 121.131728 
L 237.127191 121.296508 
L 237.158334 151.399632 
L 236.558968 151.230527 
" clip-path="url(#p2bacd0ee5b)" style="fill: none; stroke: #808080; stroke-width: 0.2; stroke-linecap: square"/>
   </g>
   <g id="line2d_135">
    <path d="M 237.158334 151.399632 
L 237.127191 121.296508 
L 237.738709 121.46264 
L 237.762613 151.570124 
L 237.158334 151.399632 
" clip-path="url(#p2bacd0ee5b)" style="fill: none; stroke: #808080; stroke-width: 0.2; stroke-linecap: square"/>
   </g>
   <g id="line2d_136">
    <path d="M 237.762613 151.570124 
L 237.738709 121.46264 
L 238.355246 121.630134 
L 238.371848 151.742013 
L 237.762613 151.570124 
" clip-path="url(#p2bacd0ee5b)" style="fill: none; stroke: #808080; stroke-width: 0.2; stroke-linecap: square"/>
   </g>
   <g id="line2d_137">
    <path d="M 238.371848 151.742013 
L 238.355246 121.630134 
L 238.976843 121.799004 
L 238.98608 151.915313 
L 238.371848 151.742013 
" clip-path="url(#p2bacd0ee5b)" style="fill: none; stroke: #808080; stroke-width: 0.2; stroke-linecap: square"/>
   </g>
   <g id="line2d_138">
    <path d="M 238.98608 151.915313 
L 238.976843 121.799004 
L 239.603545 121.96926 
L 239.605354 152.090035 
L 238.98608 151.915313 
" clip-path="url(#p2bacd0ee5b)" style="fill: none; stroke: #808080; stroke-width: 0.2; stroke-linecap: square"/>
   </g>
   <g id="line2d_139">
    <path d="M 239.605354 152.090035 
L 239.603545 121.96926 
L 240.235396 122.140915 
L 240.229712 152.266192 
L 239.605354 152.090035 
" clip-path="url(#p2bacd0ee5b)" style="fill: none; stroke: #808080; stroke-width: 0.2; stroke-linecap: square"/>
   </g>
   <g id="line2d_140">
    <path d="M 240.229712 152.266192 
L 240.235396 122.140915 
L 240.87244 122.313981 
L 240.859198 152.443796 
L 240.229712 152.266192 
" clip-path="url(#p2bacd0ee5b)" style="fill: none; stroke: #808080; stroke-width: 0.2; stroke-linecap: square"/>
   </g>
   <g id="line2d_141">
    <path d="M 240.859198 152.443796 
L 240.87244 122.313981 
L 241.514722 122.48847 
L 241.493857 152.622859 
L 240.859198 152.443796 
" clip-path="url(#p2bacd0ee5b)" style="fill: none; stroke: #808080; stroke-width: 0.2; stroke-linecap: square"/>
   </g>
   <g id="line2d_142">
    <path d="M 241.493857 152.622859 
L 241.514722 122.48847 
L 242.162288 122.664394 
L 242.133734 152.803394 
L 241.493857 152.622859 
" clip-path="url(#p2bacd0ee5b)" style="fill: none; stroke: #808080; stroke-width: 0.2; stroke-linecap: square"/>
   </g>
   <g id="line2d_143">
    <path d="M 242.133734 152.803394 
L 242.162288 122.664394 
L 242.815184 122.841767 
L 242.778873 152.985414 
L 242.133734 152.803394 
" clip-path="url(#p2bacd0ee5b)" style="fill: none; stroke: #808080; stroke-width: 0.2; stroke-linecap: square"/>
   </g>
   <g id="line2d_144">
    <path d="M 242.778873 152.985414 
L 242.815184 122.841767 
L 243.473455 123.020599 
L 243.429321 153.168932 
L 242.778873 152.985414 
" clip-path="url(#p2bacd0ee5b)" style="fill: none; stroke: #808080; stroke-width: 0.2; stroke-linecap: square"/>
   </g>
   <g id="line2d_145">
    <path d="M 243.429321 153.168932 
L 243.473455 123.020599 
L 244.137149 123.200905 
L 244.085123 153.35396 
L 243.429321 153.168932 
" clip-path="url(#p2bacd0ee5b)" style="fill: none; stroke: #808080; stroke-width: 0.2; stroke-linecap: square"/>
   </g>
   <g id="line2d_146">
    <path d="M 244.085123 153.35396 
L 244.137149 123.200905 
L 244.806312 123.382697 
L 244.746326 153.540512 
L 244.085123 153.35396 
" clip-path="url(#p2bacd0ee5b)" style="fill: none; stroke: #808080; stroke-width: 0.2; stroke-linecap: square"/>
   </g>
   <g id="line2d_147">
    <path d="M 244.746326 153.540512 
L 244.806312 123.382697 
L 245.480992 123.565987 
L 245.412977 153.728601 
L 244.746326 153.540512 
" clip-path="url(#p2bacd0ee5b)" style="fill: none; stroke: #808080; stroke-width: 0.2; stroke-linecap: square"/>
   </g>
   <g id="line2d_148">
    <path d="M 245.412977 153.728601 
L 245.480992 123.565987 
L 246.161237 123.75079 
L 246.085123 153.918241 
L 245.412977 153.728601 
" clip-path="url(#p2bacd0ee5b)" style="fill: none; stroke: #808080; stroke-width: 0.2; stroke-linecap: square"/>
   </g>
   <g id="line2d_149">
    <path d="M 246.085123 153.918241 
L 246.161237 123.75079 
L 246.847096 123.937117 
L 246.762812 154.109445 
L 246.085123 153.918241 
" clip-path="url(#p2bacd0ee5b)" style="fill: none; stroke: #808080; stroke-width: 0.2; stroke-linecap: square"/>
   </g>
   <g id="line2d_150">
    <path d="M 246.762812 154.109445 
L 246.847096 123.937117 
L 247.538618 124.124983 
L 247.446092 154.302226 
L 246.762812 154.109445 
" clip-path="url(#p2bacd0ee5b)" style="fill: none; stroke: #808080; stroke-width: 0.2; stroke-linecap: square"/>
   </g>
   <g id="line2d_151">
    <path d="M 247.446092 154.302226 
L 247.538618 124.124983 
L 248.235851 124.314401 
L 248.135012 154.496598 
L 247.446092 154.302226 
" clip-path="url(#p2bacd0ee5b)" style="fill: none; stroke: #808080; stroke-width: 0.2; stroke-linecap: square"/>
   </g>
   <g id="line2d_152">
    <path d="M 248.135012 154.496598 
L 248.235851 124.314401 
L 248.938847 124.505384 
L 248.829621 154.692575 
L 248.135012 154.496598 
" clip-path="url(#p2bacd0ee5b)" style="fill: none; stroke: #808080; stroke-width: 0.2; stroke-linecap: square"/>
   </g>
   <g id="line2d_153">
    <path d="M 248.829621 154.692575 
L 248.938847 124.505384 
L 249.647654 124.697945 
L 249.52997 154.890172 
L 248.829621 154.692575 
" clip-path="url(#p2bacd0ee5b)" style="fill: none; stroke: #808080; stroke-width: 0.2; stroke-linecap: square"/>
   </g>
   <g id="line2d_154">
    <path d="M 249.52997 154.890172 
L 249.647654 124.697945 
L 250.362325 124.8921 
L 250.236107 155.089402 
L 249.52997 154.890172 
" clip-path="url(#p2bacd0ee5b)" style="fill: none; stroke: #808080; stroke-width: 0.2; stroke-linecap: square"/>
   </g>
   <g id="line2d_155">
    <path d="M 250.236107 155.089402 
L 250.362325 124.8921 
L 251.08291 125.087862 
L 250.948083 155.290279 
L 250.236107 155.089402 
" clip-path="url(#p2bacd0ee5b)" style="fill: none; stroke: #808080; stroke-width: 0.2; stroke-linecap: square"/>
   </g>
   <g id="line2d_156">
    <path d="M 250.948083 155.290279 
L 251.08291 125.087862 
L 251.809462 125.285244 
L 251.665951 155.492819 
L 250.948083 155.290279 
" clip-path="url(#p2bacd0ee5b)" style="fill: none; stroke: #808080; stroke-width: 0.2; stroke-linecap: square"/>
   </g>
   <g id="line2d_157">
    <path d="M 251.665951 155.492819 
L 251.809462 125.285244 
L 252.542032 125.484262 
L 252.389761 155.697035 
L 251.665951 155.492819 
" clip-path="url(#p2bacd0ee5b)" style="fill: none; stroke: #808080; stroke-width: 0.2; stroke-linecap: square"/>
   </g>
   <g id="line2d_158">
    <path d="M 252.389761 155.697035 
L 252.542032 125.484262 
L 253.280674 125.684929 
L 253.119565 155.902942 
L 252.389761 155.697035 
" clip-path="url(#p2bacd0ee5b)" style="fill: none; stroke: #808080; stroke-width: 0.2; stroke-linecap: square"/>
   </g>
   <g id="line2d_159">
    <path d="M 253.119565 155.902942 
L 253.280674 125.684929 
L 254.02544 125.88726 
L 253.855416 156.110556 
L 253.119565 155.902942 
" clip-path="url(#p2bacd0ee5b)" style="fill: none; stroke: #808080; stroke-width: 0.2; stroke-linecap: square"/>
   </g>
   <g id="line2d_160">
    <path d="M 253.855416 156.110556 
L 254.02544 125.88726 
L 254.776385 126.091269 
L 254.597368 156.31989 
L 253.855416 156.110556 
" clip-path="url(#p2bacd0ee5b)" style="fill: none; stroke: #808080; stroke-width: 0.2; stroke-linecap: square"/>
   </g>
   <g id="line2d_161">
    <path d="M 254.597368 156.31989 
L 254.776385 126.091269 
L 255.533564 126.296972 
L 255.345473 156.530961 
L 254.597368 156.31989 
" clip-path="url(#p2bacd0ee5b)" style="fill: none; stroke: #808080; stroke-width: 0.2; stroke-linecap: square"/>
   </g>
   <g id="line2d_162">
    <path d="M 255.345473 156.530961 
L 255.533564 126.296972 
L 256.29703 126.504383 
L 256.099786 156.743783 
L 255.345473 156.530961 
" clip-path="url(#p2bacd0ee5b)" style="fill: none; stroke: #808080; stroke-width: 0.2; stroke-linecap: square"/>
   </g>
   <g id="line2d_163">
    <path d="M 256.099786 156.743783 
L 256.29703 126.504383 
L 257.06684 126.713517 
L 256.860363 156.958373 
L 256.099786 156.743783 
" clip-path="url(#p2bacd0ee5b)" style="fill: none; stroke: #808080; stroke-width: 0.2; stroke-linecap: square"/>
   </g>
   <g id="line2d_164">
    <path d="M 256.860363 156.958373 
L 257.06684 126.713517 
L 257.84305 126.924391 
L 257.627257 157.174745 
L 256.860363 156.958373 
" clip-path="url(#p2bacd0ee5b)" style="fill: none; stroke: #808080; stroke-width: 0.2; stroke-linecap: square"/>
   </g>
   <g id="line2d_165">
    <path d="M 257.627257 157.174745 
L 257.84305 126.924391 
L 258.625716 127.137018 
L 258.400524 157.392915 
L 257.627257 157.174745 
" clip-path="url(#p2bacd0ee5b)" style="fill: none; stroke: #808080; stroke-width: 0.2; stroke-linecap: square"/>
   </g>
   <g id="line2d_166">
    <path d="M 258.400524 157.392915 
L 258.625716 127.137018 
L 259.414895 127.351414 
L 259.180222 157.612899 
L 258.400524 157.392915 
" clip-path="url(#p2bacd0ee5b)" style="fill: none; stroke: #808080; stroke-width: 0.2; stroke-linecap: square"/>
   </g>
   <g id="line2d_167">
    <path d="M 259.180222 157.612899 
L 259.414895 127.351414 
L 260.210645 127.567596 
L 259.966407 157.834714 
L 259.180222 157.612899 
" clip-path="url(#p2bacd0ee5b)" style="fill: none; stroke: #808080; stroke-width: 0.2; stroke-linecap: square"/>
   </g>
   <g id="line2d_168">
    <path d="M 259.966407 157.834714 
L 260.210645 127.567596 
L 261.013024 127.785578 
L 260.759136 158.058375 
L 259.966407 157.834714 
" clip-path="url(#p2bacd0ee5b)" style="fill: none; stroke: #808080; stroke-width: 0.2; stroke-linecap: square"/>
   </g>
   <g id="line2d_169">
    <path d="M 260.759136 158.058375 
L 261.013024 127.785578 
L 261.822092 128.005378 
L 261.558467 158.283898 
L 260.759136 158.058375 
" clip-path="url(#p2bacd0ee5b)" style="fill: none; stroke: #808080; stroke-width: 0.2; stroke-linecap: square"/>
   </g>
   <g id="line2d_170">
    <path d="M 261.558467 158.283898 
L 261.822092 128.005378 
L 262.637906 128.22701 
L 262.364459 158.511302 
L 261.558467 158.283898 
" clip-path="url(#p2bacd0ee5b)" style="fill: none; stroke: #808080; stroke-width: 0.2; stroke-linecap: square"/>
   </g>
   <g id="line2d_171">
    <path d="M 262.364459 158.511302 
L 262.637906 128.22701 
L 263.460528 128.450492 
L 263.177171 158.740601 
L 262.364459 158.511302 
" clip-path="url(#p2bacd0ee5b)" style="fill: none; stroke: #808080; stroke-width: 0.2; stroke-linecap: square"/>
   </g>
   <g id="line2d_172">
    <path d="M 263.177171 158.740601 
L 263.460528 128.450492 
L 264.290018 128.67584 
L 263.996663 158.971812 
L 263.177171 158.740601 
" clip-path="url(#p2bacd0ee5b)" style="fill: none; stroke: #808080; stroke-width: 0.2; stroke-linecap: square"/>
   </g>
   <g id="line2d_173">
    <path d="M 263.996663 158.971812 
L 264.290018 128.67584 
L 265.126438 128.90307 
L 264.822995 159.204954 
L 263.996663 158.971812 
" clip-path="url(#p2bacd0ee5b)" style="fill: none; stroke: #808080; stroke-width: 0.2; stroke-linecap: square"/>
   </g>
   <g id="line2d_174">
    <path d="M 264.822995 159.204954 
L 265.126438 128.90307 
L 265.969848 129.1322 
L 265.656227 159.440043 
L 264.822995 159.204954 
" clip-path="url(#p2bacd0ee5b)" style="fill: none; stroke: #808080; stroke-width: 0.2; stroke-linecap: square"/>
   </g>
   <g id="line2d_175">
    <path d="M 265.656227 159.440043 
L 265.969848 129.1322 
L 266.820312 129.363245 
L 266.496422 159.677096 
L 265.656227 159.440043 
" clip-path="url(#p2bacd0ee5b)" style="fill: none; stroke: #808080; stroke-width: 0.2; stroke-linecap: square"/>
   </g>
   <g id="line2d_176">
    <path d="M 266.496422 159.677096 
L 266.820312 129.363245 
L 267.677891 129.596224 
L 267.343641 159.916131 
L 266.496422 159.677096 
" clip-path="url(#p2bacd0ee5b)" style="fill: none; stroke: #808080; stroke-width: 0.2; stroke-linecap: square"/>
   </g>
   <g id="line2d_177">
    <path d="M 267.343641 159.916131 
L 267.677891 129.596224 
L 268.542652 129.831154 
L 268.197948 160.157165 
L 267.343641 159.916131 
" clip-path="url(#p2bacd0ee5b)" style="fill: none; stroke: #808080; stroke-width: 0.2; stroke-linecap: square"/>
   </g>
   <g id="line2d_178">
    <path d="M 268.197948 160.157165 
L 268.542652 129.831154 
L 269.414656 130.068051 
L 269.059405 160.400217 
L 268.197948 160.157165 
" clip-path="url(#p2bacd0ee5b)" style="fill: none; stroke: #808080; stroke-width: 0.2; stroke-linecap: square"/>
   </g>
   <g id="line2d_179">
    <path d="M 269.059405 160.400217 
L 269.414656 130.068051 
L 270.293969 130.306935 
L 269.928077 160.645305 
L 269.059405 160.400217 
" clip-path="url(#p2bacd0ee5b)" style="fill: none; stroke: #808080; stroke-width: 0.2; stroke-linecap: square"/>
   </g>
   <g id="line2d_180">
    <path d="M 269.928077 160.645305 
L 270.293969 130.306935 
L 271.180658 130.547821 
L 270.804028 160.892446 
L 269.928077 160.645305 
" clip-path="url(#p2bacd0ee5b)" style="fill: none; stroke: #808080; stroke-width: 0.2; stroke-linecap: square"/>
   </g>
   <g id="line2d_181">
    <path d="M 270.804028 160.892446 
L 271.180658 130.547821 
L 272.074787 130.79073 
L 271.687324 161.141659 
L 270.804028 160.892446 
" clip-path="url(#p2bacd0ee5b)" style="fill: none; stroke: #808080; stroke-width: 0.2; stroke-linecap: square"/>
   </g>
   <g id="line2d_182">
    <path d="M 271.687324 161.141659 
L 272.074787 130.79073 
L 272.976425 131.035678 
L 272.57803 161.392964 
L 271.687324 161.141659 
" clip-path="url(#p2bacd0ee5b)" style="fill: none; stroke: #808080; stroke-width: 0.2; stroke-linecap: square"/>
   </g>
   <g id="line2d_183">
    <path d="M 272.57803 161.392964 
L 272.976425 131.035678 
L 273.885638 131.282684 
L 273.476213 161.646378 
L 272.57803 161.392964 
" clip-path="url(#p2bacd0ee5b)" style="fill: none; stroke: #808080; stroke-width: 0.2; stroke-linecap: square"/>
   </g>
   <g id="line2d_184">
    <path d="M 273.476213 161.646378 
L 273.885638 131.282684 
L 274.802495 131.531767 
L 274.38194 161.90192 
L 273.476213 161.646378 
" clip-path="url(#p2bacd0ee5b)" style="fill: none; stroke: #808080; stroke-width: 0.2; stroke-linecap: square"/>
   </g>
   <g id="line2d_185">
    <path d="M 274.38194 161.90192 
L 274.802495 131.531767 
L 275.727065 131.782945 
L 275.29528 162.15961 
L 274.38194 161.90192 
" clip-path="url(#p2bacd0ee5b)" style="fill: none; stroke: #808080; stroke-width: 0.2; stroke-linecap: square"/>
   </g>
   <g id="line2d_186">
    <path d="M 275.29528 162.15961 
L 275.727065 131.782945 
L 276.659417 132.036237 
L 276.2163 162.419467 
L 275.29528 162.15961 
" clip-path="url(#p2bacd0ee5b)" style="fill: none; stroke: #808080; stroke-width: 0.2; stroke-linecap: square"/>
   </g>
   <g id="line2d_187">
    <path d="M 276.2163 162.419467 
L 276.659417 132.036237 
L 277.599622 132.291663 
L 277.145071 162.681511 
L 276.2163 162.419467 
" clip-path="url(#p2bacd0ee5b)" style="fill: none; stroke: #808080; stroke-width: 0.2; stroke-linecap: square"/>
   </g>
   <g id="line2d_188">
    <path d="M 277.145071 162.681511 
L 277.599622 132.291663 
L 278.547751 132.549241 
L 278.081662 162.945761 
L 277.145071 162.681511 
" clip-path="url(#p2bacd0ee5b)" style="fill: none; stroke: #808080; stroke-width: 0.2; stroke-linecap: square"/>
   </g>
   <g id="line2d_189">
    <path d="M 278.081662 162.945761 
L 278.547751 132.549241 
L 279.503875 132.808992 
L 279.026143 163.212238 
L 278.081662 162.945761 
" clip-path="url(#p2bacd0ee5b)" style="fill: none; stroke: #808080; stroke-width: 0.2; stroke-linecap: square"/>
   </g>
   <g id="line2d_190">
    <path d="M 279.026143 163.212238 
L 279.503875 132.808992 
L 280.468068 133.070934 
L 279.978588 163.480961 
L 279.026143 163.212238 
" clip-path="url(#p2bacd0ee5b)" style="fill: none; stroke: #808080; stroke-width: 0.2; stroke-linecap: square"/>
   </g>
   <g id="line2d_191">
    <path d="M 279.978588 163.480961 
L 280.468068 133.070934 
L 281.440403 133.335089 
L 280.939067 163.751951 
L 279.978588 163.480961 
" clip-path="url(#p2bacd0ee5b)" style="fill: none; stroke: #808080; stroke-width: 0.2; stroke-linecap: square"/>
   </g>
   <g id="line2d_192">
    <path d="M 280.939067 163.751951 
L 281.440403 133.335089 
L 282.420952 133.601475 
L 281.907653 164.025229 
L 280.939067 163.751951 
" clip-path="url(#p2bacd0ee5b)" style="fill: none; stroke: #808080; stroke-width: 0.2; stroke-linecap: square"/>
   </g>
   <g id="line2d_193">
    <path d="M 281.907653 164.025229 
L 282.420952 133.601475 
L 283.409793 133.870113 
L 282.884421 164.300814 
L 281.907653 164.025229 
" clip-path="url(#p2bacd0ee5b)" style="fill: none; stroke: #808080; stroke-width: 0.2; stroke-linecap: square"/>
   </g>
   <g id="line2d_194">
    <path d="M 282.884421 164.300814 
L 283.409793 133.870113 
L 284.406999 134.141024 
L 283.869444 164.578729 
L 282.884421 164.300814 
" clip-path="url(#p2bacd0ee5b)" style="fill: none; stroke: #808080; stroke-width: 0.2; stroke-linecap: square"/>
   </g>
   <g id="line2d_195">
    <path d="M 283.869444 164.578729 
L 284.406999 134.141024 
L 285.412647 134.414229 
L 284.862798 164.858995 
L 283.869444 164.578729 
" clip-path="url(#p2bacd0ee5b)" style="fill: none; stroke: #808080; stroke-width: 0.2; stroke-linecap: square"/>
   </g>
   <g id="line2d_196">
    <path d="M 284.862798 164.858995 
L 285.412647 134.414229 
L 286.426814 134.689748 
L 285.864559 165.141632 
L 284.862798 164.858995 
" clip-path="url(#p2bacd0ee5b)" style="fill: none; stroke: #808080; stroke-width: 0.2; stroke-linecap: square"/>
   </g>
   <g id="line2d_197">
    <path d="M 285.864559 165.141632 
L 286.426814 134.689748 
L 287.449579 134.967603 
L 286.874804 165.426663 
L 285.864559 165.141632 
" clip-path="url(#p2bacd0ee5b)" style="fill: none; stroke: #808080; stroke-width: 0.2; stroke-linecap: square"/>
   </g>
   <g id="line2d_198">
    <path d="M 286.874804 165.426663 
L 287.449579 134.967603 
L 288.48102 135.247815 
L 287.89361 165.71411 
L 286.874804 165.426663 
" clip-path="url(#p2bacd0ee5b)" style="fill: none; stroke: #808080; stroke-width: 0.2; stroke-linecap: square"/>
   </g>
   <g id="line2d_199">
    <path d="M 287.89361 165.71411 
L 288.48102 135.247815 
L 289.521216 135.530405 
L 288.921055 166.003993 
L 287.89361 165.71411 
" clip-path="url(#p2bacd0ee5b)" style="fill: none; stroke: #808080; stroke-width: 0.2; stroke-linecap: square"/>
   </g>
   <g id="line2d_200">
    <path d="M 288.921055 166.003993 
L 289.521216 135.530405 
L 290.570248 135.815396 
L 289.957219 166.296337 
L 288.921055 166.003993 
" clip-path="url(#p2bacd0ee5b)" style="fill: none; stroke: #808080; stroke-width: 0.2; stroke-linecap: square"/>
   </g>
   <g id="line2d_201">
    <path d="M 289.957219 166.296337 
L 290.570248 135.815396 
L 291.628197 136.102809 
L 291.002181 166.591163 
L 289.957219 166.296337 
" clip-path="url(#p2bacd0ee5b)" style="fill: none; stroke: #808080; stroke-width: 0.2; stroke-linecap: square"/>
   </g>
   <g id="line2d_202">
    <path d="M 291.002181 166.591163 
L 291.628197 136.102809 
L 292.695145 136.392667 
L 292.056023 166.888495 
L 291.002181 166.591163 
" clip-path="url(#p2bacd0ee5b)" style="fill: none; stroke: #808080; stroke-width: 0.2; stroke-linecap: square"/>
   </g>
   <g id="line2d_203">
    <path d="M 292.056023 166.888495 
L 292.695145 136.392667 
L 293.771175 136.684992 
L 293.118826 167.188355 
L 292.056023 166.888495 
" clip-path="url(#p2bacd0ee5b)" style="fill: none; stroke: #808080; stroke-width: 0.2; stroke-linecap: square"/>
   </g>
   <g id="line2d_204">
    <path d="M 293.118826 167.188355 
L 293.771175 136.684992 
L 294.856371 136.979808 
L 294.190672 167.490766 
L 293.118826 167.188355 
" clip-path="url(#p2bacd0ee5b)" style="fill: none; stroke: #808080; stroke-width: 0.2; stroke-linecap: square"/>
   </g>
   <g id="line2d_205">
    <path d="M 294.190672 167.490766 
L 294.856371 136.979808 
L 295.950817 137.277136 
L 295.271645 167.795752 
L 294.190672 167.490766 
" clip-path="url(#p2bacd0ee5b)" style="fill: none; stroke: #808080; stroke-width: 0.2; stroke-linecap: square"/>
   </g>
   <g id="line2d_206">
    <path d="M 295.271645 167.795752 
L 295.950817 137.277136 
L 297.054599 137.577001 
L 296.36183 168.103338 
L 295.271645 167.795752 
" clip-path="url(#p2bacd0ee5b)" style="fill: none; stroke: #808080; stroke-width: 0.2; stroke-linecap: square"/>
   </g>
   <g id="line2d_207">
    <path d="M 296.36183 168.103338 
L 297.054599 137.577001 
L 298.167804 137.879426 
L 297.46131 168.413546 
L 296.36183 168.103338 
" clip-path="url(#p2bacd0ee5b)" style="fill: none; stroke: #808080; stroke-width: 0.2; stroke-linecap: square"/>
   </g>
   <g id="line2d_208">
    <path d="M 297.46131 168.413546 
L 298.167804 137.879426 
L 299.290518 138.184434 
L 298.570173 168.726401 
L 297.46131 168.413546 
" clip-path="url(#p2bacd0ee5b)" style="fill: none; stroke: #808080; stroke-width: 0.2; stroke-linecap: square"/>
   </g>
   <g id="line2d_209">
    <path d="M 298.570173 168.726401 
L 299.290518 138.184434 
L 300.422831 138.492049 
L 299.688506 169.041928 
L 298.570173 168.726401 
" clip-path="url(#p2bacd0ee5b)" style="fill: none; stroke: #808080; stroke-width: 0.2; stroke-linecap: square"/>
   </g>
   <g id="line2d_210">
    <path d="M 299.688506 169.041928 
L 300.422831 138.492049 
L 301.56483 138.802297 
L 300.816395 169.360151 
L 299.688506 169.041928 
" clip-path="url(#p2bacd0ee5b)" style="fill: none; stroke: #808080; stroke-width: 0.2; stroke-linecap: square"/>
   </g>
   <g id="line2d_211">
    <path d="M 300.816395 169.360151 
L 301.56483 138.802297 
L 302.716607 139.1152 
L 301.95393 169.681096 
L 300.816395 169.360151 
" clip-path="url(#p2bacd0ee5b)" style="fill: none; stroke: #808080; stroke-width: 0.2; stroke-linecap: square"/>
   </g>
   <g id="line2d_212">
    <path d="M 301.95393 169.681096 
L 302.716607 139.1152 
L 303.878253 139.430785 
L 303.101201 170.004787 
L 301.95393 169.681096 
" clip-path="url(#p2bacd0ee5b)" style="fill: none; stroke: #808080; stroke-width: 0.2; stroke-linecap: square"/>
   </g>
   <g id="line2d_213">
    <path d="M 303.101201 170.004787 
L 303.878253 139.430785 
L 305.049859 139.749075 
L 304.258297 170.331251 
L 303.101201 170.004787 
" clip-path="url(#p2bacd0ee5b)" style="fill: none; stroke: #808080; stroke-width: 0.2; stroke-linecap: square"/>
   </g>
   <g id="line2d_214">
    <path d="M 304.258297 170.331251 
L 305.049859 139.749075 
L 306.231519 140.070097 
L 305.425312 170.660513 
L 304.258297 170.331251 
" clip-path="url(#p2bacd0ee5b)" style="fill: none; stroke: #808080; stroke-width: 0.2; stroke-linecap: square"/>
   </g>
   <g id="line2d_215">
    <path d="M 305.425312 170.660513 
L 306.231519 140.070097 
L 307.423327 140.393876 
L 306.602337 170.9926 
L 305.425312 170.660513 
" clip-path="url(#p2bacd0ee5b)" style="fill: none; stroke: #808080; stroke-width: 0.2; stroke-linecap: square"/>
   </g>
   <g id="line2d_216">
    <path d="M 306.602337 170.9926 
L 307.423327 140.393876 
L 308.625377 140.720437 
L 307.789467 171.327537 
L 306.602337 170.9926 
" clip-path="url(#p2bacd0ee5b)" style="fill: none; stroke: #808080; stroke-width: 0.2; stroke-linecap: square"/>
   </g>
   <g id="line2d_217">
    <path d="M 307.789467 171.327537 
L 308.625377 140.720437 
L 309.837766 141.049807 
L 308.986794 171.665352 
L 307.789467 171.327537 
" clip-path="url(#p2bacd0ee5b)" style="fill: none; stroke: #808080; stroke-width: 0.2; stroke-linecap: square"/>
   </g>
   <g id="line2d_218">
    <path d="M 308.986794 171.665352 
L 309.837766 141.049807 
L 309.650606 142.597942 
L 308.800286 173.253134 
L 308.986794 171.665352 
" clip-path="url(#p2bacd0ee5b)" style="fill: none; stroke: #808080; stroke-width: 0.2; stroke-linecap: square"/>
   </g>
   <g id="line2d_219">
    <path d="M 308.800286 173.253134 
L 309.650606 142.597942 
L 309.455394 144.21268 
L 308.605762 174.909145 
L 308.800286 173.253134 
" clip-path="url(#p2bacd0ee5b)" style="fill: none; stroke: #808080; stroke-width: 0.2; stroke-linecap: square"/>
   </g>
   <g id="line2d_220">
    <path d="M 308.605762 174.909145 
L 309.455394 144.21268 
L 309.251751 145.897158 
L 308.402848 176.636593 
L 308.605762 174.909145 
" clip-path="url(#p2bacd0ee5b)" style="fill: none; stroke: #808080; stroke-width: 0.2; stroke-linecap: square"/>
   </g>
   <g id="line2d_221">
    <path d="M 308.402848 176.636593 
L 309.251751 145.897158 
L 309.039276 147.654685 
L 308.191145 178.438859 
L 308.402848 176.636593 
" clip-path="url(#p2bacd0ee5b)" style="fill: none; stroke: #808080; stroke-width: 0.2; stroke-linecap: square"/>
   </g>
   <g id="line2d_222">
    <path d="M 308.191145 178.438859 
L 309.039276 147.654685 
L 308.817549 149.488752 
L 307.970234 180.319511 
L 308.191145 178.438859 
" clip-path="url(#p2bacd0ee5b)" style="fill: none; stroke: #808080; stroke-width: 0.2; stroke-linecap: square"/>
   </g>
   <g id="line2d_223">
    <path d="M 307.970234 180.319511 
L 308.817549 149.488752 
L 308.586122 151.403044 
L 307.739674 182.282313 
L 307.970234 180.319511 
" clip-path="url(#p2bacd0ee5b)" style="fill: none; stroke: #808080; stroke-width: 0.2; stroke-linecap: square"/>
   </g>
   <g id="line2d_224">
    <path d="M 307.739674 182.282313 
L 308.586122 151.403044 
L 308.344527 153.401452 
L 307.498996 184.331242 
L 307.739674 182.282313 
" clip-path="url(#p2bacd0ee5b)" style="fill: none; stroke: #808080; stroke-width: 0.2; stroke-linecap: square"/>
   </g>
   <g id="line2d_225">
    <path d="M 307.498996 184.331242 
L 308.344527 153.401452 
L 308.092265 155.48809 
L 307.247709 186.470499 
L 307.498996 184.331242 
" clip-path="url(#p2bacd0ee5b)" style="fill: none; stroke: #808080; stroke-width: 0.2; stroke-linecap: square"/>
   </g>
   <g id="line2d_226">
    <path d="M 307.247709 186.470499 
L 308.092265 155.48809 
L 307.828811 157.667309 
L 306.985289 188.704527 
L 307.247709 186.470499 
" clip-path="url(#p2bacd0ee5b)" style="fill: none; stroke: #808080; stroke-width: 0.2; stroke-linecap: square"/>
   </g>
   <g id="line2d_227">
    <path d="M 306.985289 188.704527 
L 307.828811 157.667309 
L 307.553607 159.943714 
L 306.711184 191.038028 
L 306.985289 188.704527 
" clip-path="url(#p2bacd0ee5b)" style="fill: none; stroke: #808080; stroke-width: 0.2; stroke-linecap: square"/>
   </g>
   <g id="line2d_228">
    <path d="M 306.711184 191.038028 
L 307.553607 159.943714 
L 307.266065 162.322181 
L 306.42481 193.475978 
L 306.711184 191.038028 
" clip-path="url(#p2bacd0ee5b)" style="fill: none; stroke: #808080; stroke-width: 0.2; stroke-linecap: square"/>
   </g>
   <g id="line2d_229">
    <path d="M 306.42481 193.475978 
L 307.266065 162.322181 
L 306.965559 164.807877 
L 306.125548 196.023651 
L 306.42481 193.475978 
" clip-path="url(#p2bacd0ee5b)" style="fill: none; stroke: #808080; stroke-width: 0.2; stroke-linecap: square"/>
   </g>
   <g id="line2d_230">
    <path d="M 306.125548 196.023651 
L 306.965559 164.807877 
L 306.651427 167.406283 
L 305.81274 198.68664 
L 306.125548 196.023651 
" clip-path="url(#p2bacd0ee5b)" style="fill: none; stroke: #808080; stroke-width: 0.2; stroke-linecap: square"/>
   </g>
   <g id="line2d_231">
    <path d="M 305.81274 198.68664 
L 306.651427 167.406283 
L 306.322966 170.123218 
L 305.48569 201.470878 
L 305.81274 198.68664 
" clip-path="url(#p2bacd0ee5b)" style="fill: none; stroke: #808080; stroke-width: 0.2; stroke-linecap: square"/>
   </g>
   <g id="line2d_232">
    <path d="M 305.48569 201.470878 
L 306.322966 170.123218 
L 305.979429 172.964861 
L 305.143657 204.382669 
L 305.48569 201.470878 
" clip-path="url(#p2bacd0ee5b)" style="fill: none; stroke: #808080; stroke-width: 0.2; stroke-linecap: square"/>
   </g>
   <g id="line2d_233">
    <path d="M 305.143657 204.382669 
L 305.979429 172.964861 
L 305.620021 175.937781 
L 304.785853 207.428709 
L 305.143657 204.382669 
" clip-path="url(#p2bacd0ee5b)" style="fill: none; stroke: #808080; stroke-width: 0.2; stroke-linecap: square"/>
   </g>
   <g id="line2d_234">
    <path d="M 304.785853 207.428709 
L 305.620021 175.937781 
L 305.243897 179.048971 
L 304.411444 210.616126 
L 304.785853 207.428709 
" clip-path="url(#p2bacd0ee5b)" style="fill: none; stroke: #808080; stroke-width: 0.2; stroke-linecap: square"/>
   </g>
   <g id="line2d_235">
    <path d="M 304.411444 210.616126 
L 305.243897 179.048971 
L 304.850157 182.305875 
L 304.019536 213.952504 
L 304.411444 210.616126 
" clip-path="url(#p2bacd0ee5b)" style="fill: none; stroke: #808080; stroke-width: 0.2; stroke-linecap: square"/>
   </g>
   <g id="line2d_236">
    <path d="M 304.019536 213.952504 
L 304.850157 182.305875 
L 304.437841 185.71643 
L 303.609181 217.44593 
L 304.019536 213.952504 
" clip-path="url(#p2bacd0ee5b)" style="fill: none; stroke: #808080; stroke-width: 0.2; stroke-linecap: square"/>
   </g>
   <g id="line2d_237">
    <path d="M 303.609181 217.44593 
L 304.437841 185.71643 
L 304.005926 189.289105 
L 303.179365 221.105028 
L 303.609181 217.44593 
" clip-path="url(#p2bacd0ee5b)" style="fill: none; stroke: #808080; stroke-width: 0.2; stroke-linecap: square"/>
   </g>
   <g id="line2d_238">
    <path d="M 303.179365 221.105028 
L 304.005926 189.289105 
L 303.553318 193.032945 
L 302.729007 224.939007 
L 303.179365 221.105028 
" clip-path="url(#p2bacd0ee5b)" style="fill: none; stroke: #808080; stroke-width: 0.2; stroke-linecap: square"/>
   </g>
   <g id="line2d_239">
    <path d="M 302.729007 224.939007 
L 303.553318 193.032945 
L 303.078849 196.957623 
L 302.25695 228.95771 
L 302.729007 224.939007 
" clip-path="url(#p2bacd0ee5b)" style="fill: none; stroke: #808080; stroke-width: 0.2; stroke-linecap: square"/>
   </g>
   <g id="line2d_240">
    <path d="M 302.25695 228.95771 
L 303.078849 196.957623 
L 302.581265 201.073491 
L 301.761958 233.17167 
L 302.25695 228.95771 
" clip-path="url(#p2bacd0ee5b)" style="fill: none; stroke: #808080; stroke-width: 0.2; stroke-linecap: square"/>
   </g>
   <g id="line2d_241">
    <path d="M 301.761958 233.17167 
L 302.581265 201.073491 
L 302.059227 205.391641 
L 301.242704 237.592168 
L 301.761958 233.17167 
" clip-path="url(#p2bacd0ee5b)" style="fill: none; stroke: #808080; stroke-width: 0.2; stroke-linecap: square"/>
   </g>
   <g id="line2d_242">
    <path d="M 301.242704 237.592168 
L 302.059227 205.391641 
L 301.511295 209.923976 
L 300.697768 242.231306 
L 301.242704 237.592168 
" clip-path="url(#p2bacd0ee5b)" style="fill: none; stroke: #808080; stroke-width: 0.2; stroke-linecap: square"/>
   </g>
  </g>
 </g>
 <defs>
  <clipPath id="p2bacd0ee5b">
   <rect x="103.104" y="41.472" width="266.112" height="266.112"/>
  </clipPath>
 </defs>
</svg>
